<?xml version="1.0" encoding="utf-8"?>
<!-- Generator: Adobe Illustrator 23.0.3, SVG Export Plug-In . SVG Version: 6.00 Build 0)  -->
<svg version="1.1" id="Layer_1" xmlns="http://www.w3.org/2000/svg" xmlns:xlink="http://www.w3.org/1999/xlink" x="0px" y="0px"
	 width="200px" height="126px" viewBox="0 0 200 126" style="enable-background:new 0 0 200 126;" xml:space="preserve">
<style type="text/css">
	.st0{fill-rule:evenodd;clip-rule:evenodd;fill:#FEFEFE;}
</style>
<g>
	<path class="st0" d="M170.4,56.4c-1.1,0-2.1,0.9-2.1,2c0,1.2,0.9,2,2.1,2c1.1,0,2.1-0.9,2.1-2C172.5,57.3,171.5,56.4,170.4,56.4
		 M158.7,30.5c-0.4,0.2-0.7,1.3-0.6,1.8c0,0,5.1,23.6,5.2,23.8c0.3,1.4,1.8,2.6,1.8,2.6l-6.4-0.3c0.4-0.4,0.6-1.1,0.6-1.7l-1.5-7.7
		l-6-0.3c0,0-1,7.4-1.1,7.8c0,0.3,0.2,1.6,0.5,1.8H145c0.5-0.4,0.9-1,1.2-1.9c0,0,4.5-23,4.7-23.8c0.1-0.9-0.1-1.5-0.4-2.3
		L158.7,30.5 M81.7,62.1c0,3.7-3,6.7-6.7,6.7c-3.7,0-6.7-3-6.7-6.7V44.7c0-3.7,3-6.7,6.7-6.7c3.7,0,6.7,3,6.7,6.7V62.1 M125.8,59.6
		c0.8-0.6,1.8-1.7,1.8-3.6l0-22c0-1-0.3-1.8-0.9-2.7l6.5-0.4c-0.3,0.2-0.9,1.3-0.9,2.2c0,0.9,0,22.4,0,22.4l6.2-0.4l3.2-3.8
		l-1.4,7.4L125.8,59.6 M88,65.1c0.4-0.9,0.6-0.7,0.6-2.7l0-23.6c0-1-0.3-1.7-0.9-2.5l6.2-1.2c-0.2,0.2-0.8,1.5-0.8,2.4
		c0,0.9,0.1,23,0.1,23l5.5-1l2.9-4l-0.7,7.2L88,65.1 M47.6,74.6l0-24.8c0-1-0.6-1.7-1-2.3l5.7-1.9c-0.4,0.8-0.5,1.5-0.5,2.4s0,9,0,9
		L58,55v-9.4c0-0.3-0.1-1.4-0.8-1.9l5.4-1.6c-0.4,1.3-0.5,2.1-0.5,2.5c0,0.4,0,24.3,0,24.3c0,1,0.4,1.5,1.3,2.3l-5.9,2
		C57.7,73,58,71.6,58,71l0-12.8l-6.2,2.1c0,0,0,9.8,0,11.3c0,1.4,0.8,2.6,1.5,3.2L47.1,77C47.3,76.6,47.6,76.5,47.6,74.6
		 M168.8,58.5c0-1,0.7-1.7,1.7-1.7c0.9,0,1.7,0.7,1.7,1.7c0,1-0.7,1.7-1.7,1.7C169.5,60.2,168.8,59.4,168.8,58.5 M168,76.4
		c-19.2-1.9-63.9-1-112,19.2c0.1,0,1.8-8.7,1.8-8.7s-5.7-6-5.7-6.1c15-6.7,41.9-13.9,64.7-16.4l0,0c18.9-2.1,33.9-2.6,49.9-1
		l-2.1,5.7L168,76.4 M151.6,71.5c0.5,0.2,1.1,0.2,1.7,0.2c0.9,0,1.7-0.2,2.4-0.8h0.1c-0.2,0.7-0.4,1.4-0.6,2.1
		c-2.4,0.1-4.8,0.2-7.1,0.3v0c0.8-0.5,0.7-1.3,0.7-2c0-1.8,0-3.5,0-5.3c0-0.7,0.1-1.6-0.7-2v0c1.9,0,3.8,0,5.6,0
		c0.2,0,0.5,0,0.7-0.1h0c0,0.7,0,1.3,0,2l-0.1,0c-0.4-0.6-1.4-0.6-2.1-0.6c-0.2,0-0.3,0-0.5,0c0,0.8,0,1.5,0,2.3c0.5,0,1,0,1.5,0
		c0.2,0,0.4,0,0.6-0.1h0.1c0,0.6,0,1.3,0,2h-0.1c-0.2-0.5-1-0.5-1.6-0.5c-0.2,0-0.4,0-0.5,0C151.6,69.7,151.6,70.6,151.6,71.5
		 M146,65.8c-0.8-0.4-1.7-0.7-2.7-0.6c-2.2,0.1-2.9,1.7-3,3.5c-0.1,2,0.9,3.6,3.3,3.4c1.3-0.1,2.4-0.6,3.5-1.2
		c-0.3,0.7-0.6,1.4-0.9,2.1c-1.1,0.3-2.2,0.5-3.2,0.6c-1.7,0.1-3,0-4.3-1c-1.2-0.9-1.8-2.2-1.7-3.7c0.1-1.4,0.8-2.8,2-3.8
		c1.3-1,3-1.4,4.6-1.5c0.8,0,1.6,0.1,2.4,0.1C146,64.5,146,65.2,146,65.8 M131.6,73.2c-0.6,0.9-1.6,1.6-2.8,1.7
		c-0.9,0.1-1.7-0.1-2.4-0.6c-0.7-0.6-0.8-1.4-0.8-2.3c0-1.6,0-3.2,0-4.8c0-0.8,0.1-1.7-0.7-2.1v0c1.4-0.1,2.9-0.2,4.3-0.3v0
		c-0.8,0.5-0.7,1.4-0.7,2.2c0,1.4,0,2.7,0,4.1c0,0.6,0,1.2,0.4,1.6c0.2,0.3,0.6,0.4,1,0.4c1.5-0.1,1.6-1.8,1.6-2.8
		c0-1.2,0-2.4,0-3.6c0-0.8,0.1-1.6-0.7-2.1v0c1.4-0.1,2.9-0.2,4.3-0.3v0c-0.8,0.5-0.7,1.4-0.7,2.1c0,1.8,0,3.7,0,5.5
		c0,0.8-0.1,1.6,0.7,2v0c-1.2,0.1-2.4,0.3-3.7,0.4C131.6,74,131.6,73.6,131.6,73.2 M116.3,73.3c-0.2,0.4-0.3,0.7-0.5,1.1
		c-0.1,0.3-0.3,0.8-0.4,1.2c0,0.4,0.2,0.6,0.5,0.8v0c-1.1,0.2-2.2,0.3-3.4,0.5l0,0c0.7-0.6,0.9-1.1,1.3-2c0.9-2.2,1.8-4.4,2.7-6.5
		c0.1-0.3,0.4-1,0.4-1.3c0-0.4-0.2-0.7-0.6-0.8v0c1.3-0.1,2.7-0.3,4-0.4c0.9,2.5,1.7,5,2.6,7.5c0.3,0.9,0.4,1.3,1.3,2l0,0v0
		c-1.7,0.2-3.3,0.5-5,0.7v0c0.4-0.3,0.7-0.5,0.7-1c0-0.3,0-0.3-0.1-0.6c-0.1-0.5-0.3-0.9-0.4-1.4C118.5,73,117.4,73.1,116.3,73.3
		 M103.5,75.8c0.9,0.6,2.2,0.9,3.4,0.7c0.7-0.1,1.8-0.5,1.8-1.4c0-1.9-5-0.7-4.9-4.3c0-0.9,0.5-1.9,1.3-2.5c0.8-0.7,1.9-1,2.9-1.2
		c0.9-0.1,1.9-0.1,2.7,0.1c0,0.6,0,1.2,0,1.9c-0.7-0.3-1.5-0.5-2.3-0.4c-0.6,0.1-1.4,0.5-1.5,1.2c0,0.8,0.9,0.9,1.5,1.1
		c0.8,0.2,1.5,0.4,2.2,0.8c0.8,0.5,1.2,1.2,1.2,2.2c0,1-0.5,2-1.4,2.8c-1,0.8-2,1.2-3.2,1.4c-1.1,0.2-2.2,0.2-3.2,0
		C103.8,77.3,103.6,76.6,103.5,75.8 M95.5,78.2c0,0.9,0,1.7,0.7,2.2v0c-1.5,0.4-3,0.7-4.5,1.1v0c0.8-0.7,0.7-1.6,0.7-2.5
		c0-2.2,0-4.4,0-6.6c-0.3,0-0.5,0-0.8,0.1c-0.8,0.2-1.2,0.4-1.9,1l-0.1,0.1c0.2-0.9,0.4-1.8,0.6-2.7c0.1,0,0.2,0,0.3,0
		c2.6-0.5,5.1-1,7.7-1.6c-0.2,0.9-0.4,1.7-0.6,2.6c-0.3-0.5-0.8-0.6-1.4-0.4c-0.3,0.1-0.6,0.1-0.8,0.3C95.5,73.8,95.5,76,95.5,78.2
		 M82.4,72.4c3.5-0.9,6.1,0.5,6.3,4.2c0.2,3.6-2.6,6.5-6,7.5c-3.4,1-6.1-0.5-6.3-4.2C76.3,76.2,79.1,73.3,82.4,72.4 M68.7,85.8
		c0,0.9-0.1,1.9,0.7,2.2v0c-1.5,0.6-3,1.2-4.6,1.8v-0.1c0.8-0.8,0.7-1.8,0.7-2.7c0-2.3,0-4.5,0-6.7c0-0.9,0.1-1.9-0.7-2.2v0
		c1.5-0.5,3-0.9,4.6-1.4v0c-0.8,0.8-0.7,1.7-0.7,2.6c0,0.7,0,1.3,0,2c1-0.3,2-0.6,3-1c0-0.6,0-1.3,0-1.9c0-0.9,0.1-1.9-0.7-2.2v0
		c1.5-0.5,3-0.9,4.6-1.4v0c-0.8,0.8-0.7,1.7-0.7,2.6c0,2.1,0,4.2,0,6.3c0,0.9-0.1,1.9,0.7,2.1V86c-1.5,0.5-3,1-4.6,1.5v0
		c0.8-0.8,0.7-1.7,0.7-2.6c0-0.9,0-1.8,0-2.7c-1,0.3-2,0.6-3,1C68.6,84,68.6,84.9,68.7,85.8 M171.4,58c0-0.5-0.3-0.7-0.8-0.7h-0.9
		v2.4h0.4v-1h0.4l0.6,1h0.4l-0.7-1C171.1,58.6,171.4,58.4,171.4,58 M170.4,60.5c1.1,0,2.1-0.9,2.1-2c0-1.2-0.9-2-2.1-2
		c-1.1,0-2.1,0.9-2.1,2C168.4,59.6,169.3,60.5,170.4,60.5L170.4,60.5z M152.4,45.6l4.7,0.2l-2.5-11.7L152.4,45.6L152.4,45.6z
		 M46.8,41.7l4.8-4.6c-0.8-0.5-6-3.9-12.1-2.2c-6,1.6-11.9,6.9-12,18.8c-0.2,17.2,10.4,26.6,14.7,29.8c4.3,3.2,8.5,4.7,10.5,5
		c-5.2-3.6-19.5-14.9-19.2-34.4c0.2-11.6,6.3-16.3,9.4-16.3C45.5,37.8,46.6,40.4,46.8,41.7L46.8,41.7z M120.6,34.2l-0.1,20.6
		c0,3.7-3.3,6.7-7.4,6.7s-7.4-3-7.4-6.7l0-18.7c0-0.6-0.8-2.4-1.2-2.5l6.6-0.8c-0.6,0.7-1,2.1-1,3.1l0,20c0,1.5,1.3,2.7,3,2.7
		c1.6,0,2.9-1.2,2.9-2.7l0-21.5c-0.1-0.5-0.4-1.6-0.9-2.1l6.4-0.7C121.5,31.6,120.6,33.1,120.6,34.2L120.6,34.2z M77.7,43.5
		c0-1.5-1.2-2.7-2.7-2.7c-1.5,0-2.7,1.2-2.7,2.7v19.7c0,1.5,1.2,2.7,2.7,2.7c1.5,0,2.7-1.2,2.7-2.7V43.5z M125.8,59.6L125.8,59.6
		L125.8,59.6z M88,65.1L88,65.1L88,65.1z M47.6,74.6L47.6,74.6L47.6,74.6z M168,76.4L168,76.4L168,76.4z M151.6,71.5L151.6,71.5
		L151.6,71.5z M146,65.8L146,65.8L146,65.8z M131.6,73.2L131.6,73.2L131.6,73.2z M118.2,68.5L118.2,68.5c-0.4,1.1-0.9,2.1-1.3,3.2
		c0.7-0.1,1.5-0.2,2.2-0.3C118.8,70.5,118.5,69.5,118.2,68.5L118.2,68.5z M103.5,75.8L103.5,75.8L103.5,75.8z M95.5,78.2L95.5,78.2
		L95.5,78.2z M80.6,81.5c0.5,0.7,1.4,1.1,2.3,0.8c0.9-0.2,1.7-0.9,2.2-1.8c0.5-0.8,0.5-1.7,0.5-2.5c-0.1-1.9-0.9-4.4-3.2-3.9
		c-2,0.5-2.7,2.6-2.6,4.4C79.7,79.5,80.1,80.7,80.6,81.5L80.6,81.5z M68.7,85.8L68.7,85.8L68.7,85.8z M118.2,64.4L118.2,64.4
		L118.2,64.4L118.2,64.4L118.2,64.4z"/>
</g>
</svg>
