<?xml version="1.0" encoding="utf-8"?>
<!-- Generator: Adobe Illustrator 23.0.3, SVG Export Plug-In . SVG Version: 6.00 Build 0)  -->
<svg version="1.1" id="Layer_1" xmlns="http://www.w3.org/2000/svg" xmlns:xlink="http://www.w3.org/1999/xlink" x="0px" y="0px"
	 width="200px" height="126px" viewBox="0 0 200 126" style="enable-background:new 0 0 200 126;" xml:space="preserve">
<style type="text/css">
	.st0{fill:#FFFFFF;}
</style>
<path class="st0" d="M99.9,102.9c-0.4,0-0.8,0-1.2,0l8.2-22.5h11.2c2,0,4.1-1.5,4.8-3.4l8.9-24.4c1.5-4-0.8-7.3-5.1-7.3h-15.6
	L98,81.4h0l-7.4,20.4c-17.6-4.2-30.7-20-30.7-38.9c0-18.3,12.4-33.8,29.2-38.5l-7.7,21.1h0l-12.7,35l8.5,0L88,50.6h6.4L83.5,80.4
	l8.5,0l10.1-27.7c1.5-4-0.8-7.3-5.1-7.3h-7.1l8.2-22.5c0.6,0,1.2,0,1.8,0c22.1,0,40,17.9,40,40C139.8,84.9,121.9,102.9,99.9,102.9z
	 M124.1,50.6h-6.4l-8.9,24.5h6.4L124.1,50.6z"/>
</svg>
