<?xml version="1.0" encoding="utf-8"?>
<!-- Generator: Adobe Illustrator 23.0.3, SVG Export Plug-In . SVG Version: 6.00 Build 0)  -->
<svg version="1.1" id="Layer_1" xmlns="http://www.w3.org/2000/svg" xmlns:xlink="http://www.w3.org/1999/xlink" x="0px" y="0px"
	 width="200px" height="126px" viewBox="0 0 200 126" style="enable-background:new 0 0 200 126;" xml:space="preserve">
<style type="text/css">
	.st0{fill:#FFFFFF;}
</style>
<g>
	<polygon class="st0" points="144.5,36.7 143.2,40.5 164.8,40.5 164.8,36.7 	"/>
	<path class="st0" d="M128.6,40.5l-1.3-3.7l-20.1,0c0,0,0,3.7,0,3.7C107.2,40.5,128.6,40.5,128.6,40.5z"/>
	<path class="st0" d="M99.8,40.5c-2.5-2.2-5.3-3.4-8.6-3.7l-27.8,0c0,0,0,3.7,0,3.7C63.4,40.5,99.8,40.5,99.8,40.5z"/>
	<rect x="34.8" y="36.7" class="st0" width="25.3" height="3.7"/>
	<path class="st0" d="M140.7,47.5h24.1v-3.7H142C142,43.8,140.7,47.5,140.7,47.5z"/>
	<polygon class="st0" points="107.1,47.5 131,47.5 129.7,43.7 107.1,43.7 	"/>
	<path class="st0" d="M63.4,47.5h40.3c0-1.4-0.6-2.5-1-3.7H63.4V47.5z"/>
	<rect x="34.8" y="43.7" class="st0" width="25.3" height="3.7"/>
	<polygon class="st0" points="157.7,50.8 139.6,50.7 138.2,54.5 157.7,54.5 	"/>
	<polygon class="st0" points="114.3,54.5 133.5,54.5 132.2,50.7 114.3,50.7 	"/>
	<path class="st0" d="M104,50.7H92.5v3.7h11C103.9,53.4,104,52,104,50.7z"/>
	<rect x="41.9" y="50.8" class="st0" width="10.9" height="3.7"/>
	<rect x="70.7" y="50.7" class="st0" width="10.9" height="3.7"/>
	<path class="st0" d="M157.7,61.3v-3.7h-20.5c0,0-1.2,3.5-1.2,3.5l-1.3-3.5h-20.4v3.7H125c0,0,0-2.8,0-2.8l1,2.8l20.1,0l1-2.8
		c0,0,0,2.8,0,2.8H157.7z"/>
	<polygon class="st0" points="101.9,57.6 101.9,57.6 101.9,57.6 	"/>
	<path class="st0" d="M70.7,61.3c0,0,28.1,0,28.1,0c1.2-1,2.4-2.5,3.1-3.7H70.7C70.7,57.6,70.7,61.3,70.7,61.3z"/>
	<rect x="41.9" y="57.6" class="st0" width="10.9" height="3.7"/>
	<rect x="147" y="64.6" class="st0" width="10.6" height="3.7"/>
	<path class="st0" d="M114.3,64.6v3.7c0,0,10.7,0,10.7,0c0,0,0-3.7,0-3.7H114.3z"/>
	<path class="st0" d="M128.4,68.3l15.2,0c0.1,0,1.2-3.7,1.3-3.7h-17.8C127.1,64.6,128.4,68.3,128.4,68.3z"/>
	<path class="st0" d="M102.1,68.3c-0.9-1.3-2.1-2.6-3.3-3.7h-28c0,0,0,3.7,0,3.7C70.7,68.3,102.1,68.3,102.1,68.3z"/>
	<path class="st0" d="M52.8,64.6H41.9c0,0,0,3.7,0,3.7c0,0,10.8,0,10.9,0V64.6z"/>
	<rect x="147" y="71.6" class="st0" width="10.6" height="3.7"/>
	<rect x="114.3" y="71.6" class="st0" width="10.7" height="3.7"/>
	<path class="st0" d="M130.9,75.3c0,0,10.2,0,10.2,0c0,0,1.3-3.7,1.3-3.7h-12.9C129.5,71.6,130.9,75.3,130.9,75.3z"/>
	<path class="st0" d="M81.8,75.3c0,0,0-3.7,0-3.7h-11c0,0,0,3.7,0,3.7C70.7,75.3,81.7,75.3,81.8,75.3z"/>
	<path class="st0" d="M92.7,71.6v3.7h11.7c-0.1-1.3-0.2-2.6-0.7-3.7H92.7z"/>
	<rect x="41.9" y="71.6" class="st0" width="10.9" height="3.7"/>
	<rect x="147" y="78.5" class="st0" width="17.8" height="3.7"/>
	<rect x="107.1" y="78.5" class="st0" width="17.8" height="3.7"/>
	<polygon class="st0" points="133.3,82.2 138.7,82.2 140,78.5 132,78.5 	"/>
	<path class="st0" d="M60.1,78.5c0,0-25.3,0-25.3,0v3.7h25.3C60.1,82.2,60.1,78.5,60.1,78.5z"/>
	<path class="st0" d="M63.4,82.2h38.7l0.3,0c0.9-1,1.1-2.5,1.4-3.7H63.4V82.2z"/>
	<polygon class="st0" points="135.7,89.2 136.2,89.2 137.5,85.5 134.5,85.5 	"/>
	<rect x="147" y="85.5" class="st0" width="17.8" height="3.7"/>
	<path class="st0" d="M63.4,89.2L63.4,89.2l27.2,0c3.6-0.1,7-1.4,9.4-3.7c-0.1,0-36.6,0-36.6,0V89.2z"/>
	<rect x="107.1" y="85.5" class="st0" width="17.8" height="3.7"/>
	<path class="st0" d="M34.8,85.5c0,0,0,3.7,0,3.7c0,0,25.3,0,25.3,0c0,0,0-3.7,0-3.7C60.1,85.5,34.8,85.5,34.8,85.5z"/>
</g>
</svg>
