<?xml version="1.0" encoding="iso-8859-1"?>
<!-- Generator: Adobe Illustrator 19.0.0, SVG Export Plug-In . SVG Version: 6.00 Build 0)  -->
<svg version="1.1" id="Layer_1" xmlns="http://www.w3.org/2000/svg" xmlns:xlink="http://www.w3.org/1999/xlink" x="0px" y="0px"
	 viewBox="0 0 512.001 512.001" style="enable-background:new 0 0 512.001 512.001;" xml:space="preserve">
<g>
	<g>
		<path d="M133.565,66.783c-11.911,0-23.325,3.315-33.391,9.224v115.121c10.067,5.908,21.484,9.22,33.391,9.22
			c36.826,0,66.783-29.956,66.783-66.783C200.348,96.74,170.391,66.783,133.565,66.783z"/>
	</g>
</g>
<g>
	<g>
		<path d="M461.913,0.001H50.087C22.468,0.001,0,22.468,0,50.088c0,147.044,0,269.138,0,417.391h0.562
			c2.81,24.974,23.811,44.522,49.525,44.522h289.391c9.217,0,16.696-7.479,16.696-16.696c0-9.217-7.479-16.696-16.696-16.696
			h-27.826v-128c0-9.217-7.479-16.696-16.696-16.696c-9.217,0-16.696,7.479-16.696,16.696v128H244.87v-61.217
			c0-46.032-37.446-83.478-83.478-83.478h-128v-50.087h261.565c9.217,0,16.696-7.479,16.696-16.696s-7.479-16.696-16.696-16.696
			H33.391v-50.087h33.391V66.783H33.391V50.088c0-9.206,7.49-16.696,16.696-16.696H244.87v150.261
			c0,9.217,7.479,16.696,16.696,16.696c9.217,0,16.696-7.479,16.696-16.696V33.392h33.391v109.566
			c0,31.641,25.75,57.391,57.392,57.391h85.565c8.594,0,16.673-2.032,24.001-5.433v55.52h-83.478
			c-9.217,0-16.696,7.479-16.696,16.696s7.479,16.696,16.696,16.696h83.478v178.087c0,9.206-7.49,16.696-16.696,16.696h-22.261
			c-9.217,0-16.696,7.479-16.696,16.696c0,9.217,7.479,16.696,16.696,16.696h22.261c27.619,0,50.087-22.468,50.087-50.087V50.088
			C512,22.468,489.532,0.001,461.913,0.001z M161.391,400.696c9.22,0,16.696,7.475,16.696,16.696s-7.475,16.696-16.696,16.696
			s-16.696-7.475-16.696-16.696S152.171,400.696,161.391,400.696z M83.478,400.696c9.217,0,16.696,7.479,16.696,16.696
			s-7.479,16.696-16.696,16.696H33.391v-33.391H83.478z M478.609,100.174c-46.662,0-56.145,0-133.565,0V66.783h50.087V33.392h33.391
			v33.391h50.087V100.174z"/>
	</g>
</g>
<g>
</g>
<g>
</g>
<g>
</g>
<g>
</g>
<g>
</g>
<g>
</g>
<g>
</g>
<g>
</g>
<g>
</g>
<g>
</g>
<g>
</g>
<g>
</g>
<g>
</g>
<g>
</g>
<g>
</g>
</svg>
