<?xml version="1.0" encoding="utf-8"?>
<!-- Generator: Adobe Illustrator 23.0.3, SVG Export Plug-In . SVG Version: 6.00 Build 0)  -->
<svg version="1.1" id="Layer_1" xmlns="http://www.w3.org/2000/svg" xmlns:xlink="http://www.w3.org/1999/xlink" x="0px" y="0px"
	 width="200px" height="126px" viewBox="0 0 200 126" style="enable-background:new 0 0 200 126;" xml:space="preserve">
<style type="text/css">
	.st0{fill-rule:evenodd;clip-rule:evenodd;fill:#FFFFFF;}
</style>
<g id="layer1" transform="translate(-372.683303491012,-490.941156659974)">
	<g transform="matrix(3.32201327697973,0,0,3.32201327697973,374.682511487847,490.302202112821)">
		<g id="Footer-1440" transform="translate(-137,-447)">
			<g id="Logo" transform="translate(137,447)">
				<path id="Fill-1" class="st0" d="M23.3,18c0-0.1,0.1-0.1,0.1-0.1c0.1,0,0.3,0.1,0.4,0.3c0,0-0.1,0-0.1,0
					C23.5,18.2,23.3,18.1,23.3,18L23.3,18z M11.5,18c0-0.1,0-0.1,0.1-0.1c0.1,0,0.3,0.1,0.4,0.3C11.6,18.2,11.5,18.2,11.5,18z
					 M13.8,16.8c0-1.2,0.2-1.4,0.3-1.4c0.1,0,0.1,0.1,0.1,0.5c0,0.5-0.2,1.1-0.5,1.5L13.8,16.8z M22.1,18c-0.1,0.2-0.3,0.5-0.3,0.8
					c0,0.7,0.4,1.3,1.2,1.3c0.7,0,1.3-0.6,1.3-1.4c0-0.2,0-0.3,0-0.4c0.2-0.1,0.3-0.2,0.4-0.3c0.1-0.1,0.2-0.1,0.2-0.1
					c0.1,0,0.1,0.1,0.1,0.2v1.6c0,0.3,0.1,0.4,0.3,0.4c0.2,0,0.3-0.1,0.4-0.3c0.3-0.6,0.7-1.3,0.8-1.6c0-0.1,0.1-0.1,0.1-0.1
					c0,0,0,0,0,0.1v1.3c0,0.4,0.2,0.6,0.5,0.6c0.4,0,0.6-0.4,0.9-0.9c0,0,0-0.1,0-0.1c0-0.1-0.1-0.1-0.1-0.1c-0.1,0-0.1,0.1-0.4,0.3
					c0,0.1-0.1,0.1-0.2,0.1c0,0-0.1,0-0.1-0.1V18c0-0.4-0.2-0.5-0.4-0.5c-0.2,0-0.3,0.1-0.5,0.3c-0.3,0.4-0.6,1-0.7,1.3
					c0,0,0,0.1-0.1,0.1c0,0,0,0,0-0.1v-1c0-0.3-0.1-0.5-0.4-0.5c-0.3,0-0.5,0.2-0.8,0.4c-0.2,0.1-0.3,0.2-0.4,0.2
					c-0.2-0.4-0.5-0.6-0.7-0.6c-0.3,0-0.4,0.2-0.4,0.4c0,0.3,0.2,0.5,0.4,0.5c0.1,0,0.2,0.1,0.4,0.1c0,0,0.1,0,0.1,0
					c0,0.1,0,0.2,0,0.3c0,0.4-0.2,0.8-0.7,0.8c-0.5,0-0.7-0.4-0.7-0.9c0-0.4,0.1-0.7,0.3-0.9c0.1-0.1,0.1-0.1,0.1-0.2
					c0,0-0.1,0-0.1,0c-0.3,0-0.7,0.1-0.9,0.3c-0.3,0.2-0.7,0.4-1,0.7c-0.1-0.3-0.3-0.6-0.4-0.8c0-0.1-0.1-0.2-0.1-0.2
					c-0.1,0-0.1,0.1-0.1,0.2c-0.1,0.4-0.9,1.7-1.1,1.9c0,0,0,0,0,0c0,0,0,0,0-0.1V18c0-0.4-0.2-0.5-0.4-0.5c-0.2,0-0.3,0.1-0.5,0.3
					c-0.3,0.4-0.6,1-0.8,1.3c0,0.1,0,0.1-0.1,0.1c0,0,0,0,0-0.1v-1c0-0.4-0.2-0.5-0.4-0.5c-0.2,0-0.4,0.1-0.5,0.3
					c-0.3,0.6-0.9,1.5-1,1.6c0,0,0,0,0,0c0,0,0,0,0-0.1V18c0-0.4-0.2-0.5-0.4-0.5c-0.3,0-0.5,0.3-0.6,0.4c-0.1,0.2-0.3,0.6-0.5,0.9
					c-0.1,0.2-0.2,0.4-0.2,0.4c0,0,0-0.1,0-0.2v-1.1c0.5-0.6,0.8-1.3,0.8-2c0-0.4-0.2-0.7-0.5-0.7c-0.6,0-1,0.9-1,1.9v0.9
					c-0.3,0.2-0.5,0.2-0.8,0.3c-0.2-0.5-0.5-0.7-0.7-0.7c-0.3,0-0.4,0.2-0.4,0.4c0,0.4,0.4,0.6,0.8,0.6H12c0,0.1,0,0.2,0,0.3
					c0,0.4-0.2,0.8-0.7,0.8c-0.5,0-0.7-0.4-0.7-0.9c0-0.4,0.1-0.7,0.3-0.9c0.1-0.1,0.1-0.2,0.1-0.2c0,0-0.1,0-0.1,0
					c-0.3,0-1,0.4-1.8,1.2C9.1,18.1,9,17.4,9,16.8c0-0.7,0.1-1.3,0.2-1.5c0-0.1,0-0.2,0-0.2c0-0.1,0-0.1-0.1-0.1
					c-0.7,0-2.1,1.1-2.1,2.6c0,1.1,0.4,1.7,1.1,2.4c-0.4,0.7-0.8,1.5-0.8,2.3c0,0.5,0.1,0.9,0.5,0.9c0.8,0,1.4-1.7,1.4-3
					c0-0.4,0-0.8,0-1.1c0.3-0.3,0.8-0.8,0.9-0.8c0,0.2-0.1,0.4-0.1,0.5c0,0.7,0.4,1.3,1.2,1.3c0.7,0,1.3-0.6,1.3-1.4
					c0-0.1,0-0.2,0-0.3c0.3,0,0.5-0.1,0.7-0.3v1.6c0,0.2,0.1,0.3,0.3,0.3c0.2,0,0.3-0.1,0.4-0.4c0.1-0.2,0.4-0.8,0.6-1.1
					c0.1-0.3,0.2-0.4,0.3-0.4c0,0,0,0,0,0.1v1.4c0,0.4,0.2,0.5,0.4,0.5c0.2,0,0.3-0.1,0.4-0.2c0.4-0.6,0.9-1.3,1.1-1.6
					c0-0.1,0.1-0.1,0.1-0.1c0,0,0,0,0,0.1v1.5c0,0.3,0.1,0.4,0.3,0.4c0.2,0,0.3-0.1,0.4-0.3c0.3-0.6,0.7-1.3,0.8-1.6
					c0-0.1,0.1-0.1,0.1-0.1c0,0,0,0,0,0.1v1.4c0,0.4,0.2,0.5,0.4,0.5c0.2,0,0.4-0.2,0.5-0.4c0.3-0.4,0.7-1,0.9-1.4
					c0.1,0.1,0.2,0.3,0.2,0.5c-0.2,0.2-0.4,0.5-0.4,0.8c0,0.3,0.2,0.5,0.4,0.5c0.4,0,0.7-0.4,0.7-0.9c0-0.2-0.1-0.4-0.1-0.6
					C21.4,18.4,21.8,18.1,22.1,18L22.1,18z M8.6,19.8c0.1,0.4,0.1,0.9,0.1,1.2c0,0.8-0.3,1.7-0.7,1.7c-0.2,0-0.3-0.2-0.3-0.5
					C7.6,21.2,8.1,20.4,8.6,19.8z M20.5,19.3c0,0.1,0.1,0.3,0.1,0.4c0,0.1,0,0.3-0.1,0.3c-0.1,0-0.1-0.1-0.1-0.2
					C20.3,19.6,20.4,19.4,20.5,19.3z M8.9,15.3c0,0-0.1,0.3-0.3,0.7c-0.2,0.4-0.3,1-0.3,1.8c0,0.4,0.1,1,0.2,1.6l-0.3,0.4
					c-0.4-0.5-0.7-1.1-0.7-2.1C7.6,16.3,8.4,15.3,8.9,15.3C8.9,15.3,8.9,15.3,8.9,15.3z"/>
				<path id="Fill-4" class="st0" d="M47.3,18c0-0.1,0-0.1,0.1-0.1c0.1,0,0.3,0.1,0.4,0.3c0,0-0.1,0-0.1,0
					C47.5,18.2,47.3,18.1,47.3,18z M35.5,18c0-0.1,0-0.1,0.1-0.1c0.1,0,0.3,0.1,0.4,0.3C35.6,18.2,35.5,18.2,35.5,18z M37.8,16.8
					c0-1.2,0.2-1.4,0.3-1.4c0.1,0,0.1,0.1,0.1,0.5c0,0.5-0.2,1.1-0.5,1.5V16.8z M32.6,19.8c0.1,0.4,0.1,0.9,0.1,1.2
					c0,0.8-0.3,1.7-0.7,1.7c-0.2,0-0.3-0.2-0.3-0.5C31.7,21.2,32.1,20.4,32.6,19.8z M44.5,19.3c0,0.1,0.1,0.3,0.1,0.4
					c0,0.1,0,0.3-0.1,0.3c-0.1,0-0.1-0.1-0.1-0.2C44.3,19.6,44.5,19.4,44.5,19.3z M32.9,15.3c0,0-0.1,0.3-0.3,0.7
					c-0.2,0.4-0.3,1-0.3,1.8c0,0.4,0.1,1,0.2,1.6l-0.3,0.4c-0.4-0.5-0.7-1.1-0.7-2.1C31.6,16.3,32.4,15.3,32.9,15.3
					C32.9,15.3,32.9,15.3,32.9,15.3L32.9,15.3z M31.5,19.4c0.1,0.2,0.3,0.4,0.5,0.6c-0.4,0.7-0.8,1.5-0.8,2.3c0,0.5,0.1,0.9,0.5,0.9
					c0.8,0,1.4-1.7,1.4-3c0-0.4,0-0.8,0-1.1c0.3-0.3,0.8-0.8,0.9-0.8c0,0.2-0.1,0.4-0.1,0.5c0,0.7,0.4,1.3,1.2,1.3
					c0.7,0,1.3-0.6,1.3-1.4c0-0.1,0-0.2,0-0.3c0.3,0,0.5-0.1,0.7-0.3v1.6c0,0.2,0.1,0.3,0.3,0.3c0.2,0,0.3-0.1,0.4-0.4
					c0.1-0.2,0.4-0.8,0.6-1.1c0.1-0.3,0.2-0.4,0.3-0.4c0,0,0,0,0,0.1v1.4c0,0.4,0.2,0.5,0.4,0.5c0.2,0,0.3-0.1,0.4-0.2
					c0.4-0.6,0.9-1.3,1.1-1.6c0-0.1,0.1-0.1,0.1-0.1c0,0,0,0,0,0.1v1.5c0,0.3,0.1,0.4,0.3,0.4c0.2,0,0.3-0.1,0.4-0.3
					c0.3-0.6,0.7-1.3,0.8-1.6c0-0.1,0.1-0.1,0.1-0.1c0,0,0,0,0,0.1v1.4c0,0.4,0.2,0.5,0.4,0.5c0.2,0,0.4-0.2,0.5-0.4
					c0.3-0.4,0.7-1,0.9-1.4c0.1,0.1,0.2,0.3,0.2,0.5c-0.2,0.2-0.4,0.5-0.4,0.8c0,0.3,0.2,0.5,0.4,0.5c0.4,0,0.7-0.4,0.7-0.9
					c0-0.2-0.1-0.4-0.1-0.6c0.3-0.3,0.7-0.6,1-0.7c-0.1,0.2-0.3,0.5-0.3,0.8c0,0.7,0.4,1.3,1.2,1.3c0.7,0,1.3-0.6,1.3-1.4
					c0-0.2,0-0.3,0-0.4c0.2-0.1,0.3-0.2,0.4-0.3c0.1-0.1,0.2-0.1,0.2-0.1c0.1,0,0.1,0.1,0.1,0.2v1.6c0,0.3,0.1,0.4,0.3,0.4
					c0.2,0,0.3-0.1,0.4-0.3c0.3-0.6,0.7-1.3,0.8-1.6c0-0.1,0.1-0.1,0.1-0.1c0,0,0,0,0,0.1v1.3c0,0.4,0.2,0.6,0.5,0.6
					c0.4,0,0.6-0.4,0.9-0.9c0,0,0-0.1,0-0.1c0-0.1-0.1-0.1-0.1-0.1c-0.1,0-0.1,0.1-0.4,0.3c0,0.1-0.1,0.1-0.2,0.1c0,0-0.1,0-0.1-0.1
					V18c0-0.4-0.2-0.5-0.4-0.5c-0.2,0-0.3,0.1-0.5,0.3c-0.3,0.4-0.6,1-0.7,1.3c0,0,0,0.1-0.1,0.1c0,0,0,0,0-0.1v-1
					c0-0.3-0.1-0.5-0.4-0.5c-0.3,0-0.5,0.2-0.8,0.4c-0.2,0.1-0.3,0.2-0.4,0.2c-0.2-0.4-0.5-0.6-0.7-0.6c-0.3,0-0.4,0.2-0.4,0.4
					c0,0.3,0.2,0.5,0.4,0.5c0.1,0,0.2,0.1,0.4,0.1c0,0,0.1,0,0.1,0c0,0.1,0,0.2,0,0.3c0,0.4-0.2,0.8-0.7,0.8c-0.5,0-0.7-0.4-0.7-0.9
					c0-0.4,0.1-0.7,0.3-0.9c0.1-0.1,0.1-0.1,0.1-0.2c0,0-0.1,0-0.1,0c-0.3,0-0.7,0.1-0.9,0.3c-0.3,0.2-0.7,0.4-1,0.7
					c-0.1-0.3-0.3-0.6-0.4-0.8c0-0.1-0.1-0.2-0.1-0.2c-0.1,0-0.1,0.1-0.1,0.2c-0.1,0.4-0.9,1.7-1.1,1.9c0,0,0,0,0,0c0,0,0,0,0-0.1
					V18c0-0.4-0.2-0.5-0.4-0.5c-0.2,0-0.3,0.1-0.5,0.3c-0.3,0.4-0.6,1-0.8,1.3c0,0.1,0,0.1-0.1,0.1c0,0,0,0,0-0.1v-1
					c0-0.4-0.2-0.5-0.4-0.5c-0.2,0-0.4,0.1-0.5,0.3c-0.3,0.6-0.9,1.5-1,1.6c0,0,0,0,0,0c0,0,0,0,0-0.1V18c0-0.4-0.2-0.5-0.4-0.5
					c-0.3,0-0.5,0.3-0.6,0.4c-0.1,0.2-0.3,0.6-0.5,0.9c-0.1,0.2-0.2,0.4-0.2,0.4c0,0,0-0.1,0-0.2v-1.1c0.5-0.6,0.8-1.3,0.8-2
					c0-0.4-0.2-0.7-0.5-0.7c-0.6,0-1,0.9-1,1.9v0.9c-0.3,0.2-0.5,0.2-0.8,0.3c-0.2-0.5-0.5-0.7-0.7-0.7c-0.3,0-0.4,0.2-0.4,0.4
					c0,0.4,0.4,0.6,0.8,0.6H36c0,0.1,0,0.2,0,0.3c0,0.4-0.2,0.8-0.7,0.8c-0.5,0-0.7-0.4-0.7-0.9c0-0.4,0.1-0.7,0.3-0.9
					c0.1-0.1,0.1-0.2,0.1-0.2c0,0-0.1,0-0.1,0c-0.3,0-1,0.4-1.8,1.2c-0.1-0.7-0.2-1.3-0.2-1.9c0-0.7,0.1-1.3,0.2-1.5
					c0-0.1,0-0.2,0-0.2c0-0.1,0-0.1-0.1-0.1c-0.7,0-2.1,1.1-2.1,2.6c0,0.6,0.1,1.1,0.4,1.5c-0.1,0-0.2,0-0.2,0
					c-0.3,0-0.5,0.1-0.7,0.1v-0.2c0-0.4-0.1-0.8-0.2-1c0,0,0,0-0.1,0c-0.1,0-0.1,0-0.2,0.1c-0.1,0-0.2,0.1-0.2,0.1c0,0,0,0,0,0.1
					c0.1,0.1,0.2,0.2,0.3,0.6c-0.3-0.3-0.6-0.4-1-0.4c-0.5,0-0.6,0.2-0.6,0.4c0,0.4,0.6,0.6,1.3,0.6c0.1,0,0.3,0,0.4-0.1
					c0,0.1,0,0.2,0,0.3c0,0.1,0,0.2,0.1,0.2c0.1,0,0.2-0.3,0.2-0.7c0.3-0.1,0.5-0.1,0.7-0.1C31.3,19.4,31.4,19.4,31.5,19.4
					L31.5,19.4z M29.9,19.4c-0.1,0-0.2,0-0.4,0c-0.3,0-0.6-0.1-0.6-0.3c0-0.1,0.1-0.2,0.2-0.2C29.5,18.9,29.7,19.1,29.9,19.4z"/>
			</g>
		</g>
	</g>
</g>
</svg>
