<?xml version="1.0" encoding="utf-8"?>
<!-- Generator: Adobe Illustrator 23.0.3, SVG Export Plug-In . SVG Version: 6.00 Build 0)  -->
<svg version="1.1" id="Layer_1" xmlns="http://www.w3.org/2000/svg" xmlns:xlink="http://www.w3.org/1999/xlink" x="0px" y="0px"
	 width="200px" height="126px" viewBox="0 0 200 126" style="enable-background:new 0 0 200 126;" xml:space="preserve">
<style type="text/css">
	.st0{fill-rule:evenodd;clip-rule:evenodd;fill:#FFFFFF;}
</style>
<g>
	<path class="st0" d="M76.9,105.8c2-0.2,2.2,0.8,2.2,4c0,3.3-2,2.9-2.2,2.9V105.8z M93.3,9.9c0,0-1.1,5.5,3.4,12.1
		c-0.2-0.4-0.4-0.7-0.5-1c-0.4-0.8-0.7-1.5-0.9-2.1c0,0-1.2-4.6,0.3-6.4l0,0c-0.9-4.4,1-6.1,1-6.1c0.3,3.2,2,7.1,4.9,12.5
		c3,5.5,7.1,12.6,12,22.2c7.9,15.5,4,27.8,2.3,31.7h-0.6c0.6-15.6-9.9-37.3-11.6-41.6c-1.3-3.3-3.6-7.7-5.6-12.1l0.1-0.2h3.4h20.9
		v83.7H102h-4.1c0,0,5.3-17-1.5-32.1c0,0-10.9-18.5-11.4-24.9c-0.5-6.3,2.2-14.1,4.1-20.9C91,18,92.4,11.6,93.3,9.9L93.3,9.9z
		 M92.8,19.5c-0.5,1.9-1,3.9-1.5,5.8c-1.6,6-4.5,13.9-4,20.1c0.4,5.1,8.2,19.1,11.1,23.9l0.1,0.1l0.1,0.1c3.2,7.1,4.1,15.1,3.5,22.8
		c-0.2,2.2-0.5,4.5-0.9,6.7c4-9.5,9.3-23.9,8.8-33.5c-0.3-6.2-2.5-13-4.6-18.8c-3-8.1-6.8-15.8-10.5-23.6C94,22,93.4,20.8,92.8,19.5
		L92.8,19.5z M115.3,74.1L115.3,74.1L115.3,74.1L115.3,74.1z M115.3,74.1L115.3,74.1L115.3,74.1L115.3,74.1z M115.3,74L115.3,74
		L115.3,74L115.3,74z M115.4,73.9L115.4,73.9L115.4,73.9L115.4,73.9z M115.4,73.8L115.4,73.8L115.4,73.8L115.4,73.8z M115.6,73.5
		L115.6,73.5L115.6,73.5L115.6,73.5z M115.6,73.3L115.6,73.3L115.6,73.3L115.6,73.3z M115.7,73.1L115.7,73.1L115.7,73.1L115.7,73.1z
		 M72.2,18.8h16c-2.9,7.6-7.1,21-7.1,21c-1.2,13.1,1.5,9.1,9.8,28.9c8.3,19.8,4.5,33.8,4.5,33.8H72.2V18.8z M80.2,53.3
		c0,0-6.5,11.1-1.2,25.4c0,0,0.8,2.2,7,10.5c6.1,8.3,6.1,11.1,6.1,11.1s4.2-12.8-2.2-24C83.7,65.3,80.2,64.3,80.2,53.3L80.2,53.3z
		 M125.9,115.9c0.3,0,0.6,0.1,0.9,0.2c0.3,0.2,0.5,0.4,0.7,0.7c0.2,0.3,0.3,0.6,0.3,0.9c0,0.3-0.1,0.6-0.3,0.9
		c-0.2,0.3-0.4,0.5-0.7,0.7c-0.3,0.2-0.6,0.3-0.9,0.3c-0.3,0-0.6-0.1-0.9-0.3c-0.3-0.2-0.5-0.4-0.7-0.7c-0.2-0.3-0.3-0.6-0.3-0.9
		c0-0.3,0.1-0.6,0.3-0.9c0.2-0.3,0.4-0.5,0.7-0.7C125.3,116,125.6,115.9,125.9,115.9L125.9,115.9z M125.9,116.2
		c-0.3,0-0.5,0.1-0.8,0.2c-0.3,0.1-0.5,0.3-0.6,0.6c-0.2,0.3-0.2,0.5-0.2,0.8s0.1,0.5,0.2,0.8c0.2,0.3,0.4,0.5,0.6,0.6
		c0.3,0.2,0.5,0.2,0.8,0.2c0.3,0,0.5-0.1,0.8-0.2c0.3-0.1,0.5-0.3,0.6-0.6c0.2-0.3,0.2-0.5,0.2-0.8s-0.1-0.5-0.2-0.8
		c-0.1-0.3-0.3-0.5-0.6-0.6C126.4,116.3,126.2,116.2,125.9,116.2L125.9,116.2z M125.1,118.8v-2h0.7c0.3,0,0.4,0,0.5,0.1
		c0.1,0,0.2,0.1,0.3,0.2c0.1,0.1,0.1,0.2,0.1,0.3c0,0.2-0.1,0.3-0.2,0.4c-0.1,0.1-0.3,0.2-0.4,0.2c0.1,0,0.1,0.1,0.2,0.1
		c0.1,0.1,0.2,0.2,0.3,0.4l0.3,0.4h-0.4l-0.2-0.3c-0.1-0.3-0.3-0.4-0.3-0.5c-0.1-0.1-0.2-0.1-0.3-0.1h-0.2v0.9H125.1z M125.4,117.6
		h0.4c0.2,0,0.3,0,0.4-0.1c0.1-0.1,0.1-0.1,0.1-0.2c0-0.1,0-0.1-0.1-0.2c-0.1-0.1-0.1-0.1-0.2-0.1c-0.1,0-0.2-0.1-0.3-0.1h-0.4
		V117.6z M101.6,104.9c3.4,0,6.1,3.3,6.1,7.3c0,4.1-2.7,7.4-6.1,7.4c-3.4,0-6.1-3.3-6.1-7.4C95.6,108.2,98.3,104.9,101.6,104.9
		L101.6,104.9z M101.6,105.4c1.5,0,2.7,3,2.7,6.8s-1.2,6.8-2.7,6.8c-1.5,0-2.7-3-2.7-6.8S100.2,105.4,101.6,105.4L101.6,105.4z
		 M94,111c-1.5-5.2-4-5.5-4-5.5c-2.8-0.2-2.8,6.1-2.8,6.1c-0.4,7.3,2,7.5,2,7.5c3,0.5,4.3-3.6,4.4-4.3c0.2-0.7,0.5-0.7,0.5-0.7
		s0,4.7,0,4.9c0,0.3-0.2,0.5-0.4,0.2c-0.2-0.3-0.2-0.9-1.1-0.4c-0.9,0.5-2.9,0.9-2.9,0.9c-2.5,0.1-6.4-1.5-6.4-7.3
		c0-5.8,4-7.3,6-7.3c2,0,2.9,1.2,3.6,1.3c0.7,0.1,0.7-0.9,0.7-0.9h0.4v4.7v0.9L94,111z M109.9,106.3L109.9,106.3v10.3
		c0,0,0,1.8-1.4,2.1c0,0-0.6,0.1-0.3,0.5c0.3,0.4,1.4,0.1,1.9,0.1c0.5,0,1.7,0.1,2,0c0.3-0.1,0.2-0.5-0.2-0.6
		c-0.4-0.1-1.5-0.8-1.5-2.2v-9.1c0.8,2.5,3.9,12,3.9,12s0.2,0.2,0.3-0.1c0.1-0.3,3.7-11.7,3.7-11.7v10.2c0,0,0,0.9-0.6,1
		c-0.6,0.1-0.9,0.6,0,0.6c0.9,0,3.7,0,4,0s1.2,0,1.2-0.3c0-0.3-0.5-0.3-0.7-0.4c-0.2-0.1-0.6-0.3-0.6-0.8s0-11.3,0-11.3
		s0.3-0.6,0.9-0.7c0.6-0.1,0.4-0.5,0.4-0.5h-4.4l-2.6,8.3l-2.7-8.3h-4.5c0,0-0.3,0.3,0.4,0.5c0.6,0.2,0.7,0.2,0.7,0.2
		S109.8,106.1,109.9,106.3L109.9,106.3z M76.9,113.2c3.6,0,5.9-0.8,5.9-4.2c0-3.5-3.6-3.7-3.6-3.7s-6.5,0-6.6,0
		c-0.1,0-0.3,0.3-0.1,0.4c0.1,0.2,0.8,0.2,1.1,0.5c0.2,0.3,0.2,0.4,0.2,1.2v4.7v0.1v0.2v0.3v0.2v0.2v0.3v0.2v0.2v0.2v0.2v0.2v0.2
		v0.2v0.2v0.2v0.2v0.1v2.2c0,0,0.1,0.8-0.6,0.9c-0.7,0.2-0.9,0.4-0.6,0.6c0.2,0.2,0.2,0.1,0.6,0.1c0.4,0,2.2-0.1,2.9-0.1
		c0.7,0,0.7,0,0.7,0s1.3,0.1,1.4,0c0.2-0.1,0.2-0.4-0.2-0.6c-0.4-0.2-0.6-0.2-0.6-0.2s-0.6-0.3-0.6-1.1v-2.9v0v-0.1v-0.1v-0.1v-0.1
		v-0.1v-0.1v-0.1v-0.1v-0.1V114V114v-0.1v0v-0.1v0v0v0v0v0v0l0,0l0,0l0,0V113.2z"/>
</g>
</svg>
