<?xml version="1.0" encoding="iso-8859-1"?>
<!-- Generator: Adobe Illustrator 19.0.0, SVG Export Plug-In . SVG Version: 6.00 Build 0)  -->
<svg version="1.1" id="Layer_1" xmlns="http://www.w3.org/2000/svg" xmlns:xlink="http://www.w3.org/1999/xlink" x="0px" y="0px"
	 viewBox="0 0 512 512" style="enable-background:new 0 0 512 512;" xml:space="preserve">
<g>
	<g>
		<path d="M456.348,144.696h-90.365L300.939,27.97C292.551,10.956,275.001,0,256,0c-18.59,0-35.438,10.148-44.177,26.515
			c-0.034,0.06-0.076,0.115-0.11,0.176l-65.701,118.005h-90.36c-27.618,0-50.087,22.469-50.087,50.087v267.13
			C5.565,489.531,28.034,512,55.652,512h400.696c27.618,0,50.087-22.469,50.087-50.087v-267.13
			C506.435,167.165,483.966,144.696,456.348,144.696z M256,33.391c8.941,0,16.696,7.227,16.696,16.696
			c0,9.206-7.49,16.696-16.696,16.696c-9.206,0-16.696-7.49-16.696-16.696C239.304,40.828,246.785,33.391,256,33.391z
			 M218.467,83.201c9.185,10.398,22.601,16.973,37.533,16.973c14.917,0,28.324-6.563,37.507-16.943l34.251,61.464H184.231
			L218.467,83.201z M473.043,461.913c0,9.206-7.49,16.696-16.696,16.696H55.652c-9.206,0-16.696-7.49-16.696-16.696v-267.13
			c0-9.206,7.49-16.696,16.696-16.696c21.793,0,378.357,0,400.696,0c9.206,0,16.696,7.49,16.696,16.696V461.913z"/>
	</g>
</g>
<g>
	<g>
		<path d="M422.957,211.478H89.044c-9.22,0-16.696,7.475-16.696,16.696v200.348c0,9.22,7.475,16.696,16.696,16.696h333.913
			c9.22,0,16.696-7.475,16.696-16.696V228.174C439.652,218.953,432.177,211.478,422.957,211.478z M406.261,411.826H105.739V244.87
			h300.522V411.826z"/>
	</g>
</g>
<g>
	<g>
		<path d="M256,345.043H155.826c-9.22,0-16.696,7.475-16.696,16.696s7.475,16.696,16.696,16.696H256
			c9.22,0,16.696-7.475,16.696-16.696S265.22,345.043,256,345.043z"/>
	</g>
</g>
<g>
	<g>
		<path d="M356.174,278.261H155.826c-9.22,0-16.696,7.475-16.696,16.696s7.475,16.696,16.696,16.696h200.348
			c9.22,0,16.696-7.475,16.696-16.696S365.394,278.261,356.174,278.261z"/>
	</g>
</g>
<g>
</g>
<g>
</g>
<g>
</g>
<g>
</g>
<g>
</g>
<g>
</g>
<g>
</g>
<g>
</g>
<g>
</g>
<g>
</g>
<g>
</g>
<g>
</g>
<g>
</g>
<g>
</g>
<g>
</g>
</svg>
