<?xml version="1.0" encoding="utf-8"?>
<!-- Generator: Adobe Illustrator 23.0.3, SVG Export Plug-In . SVG Version: 6.00 Build 0)  -->
<svg version="1.1" id="Layer_1" xmlns="http://www.w3.org/2000/svg" xmlns:xlink="http://www.w3.org/1999/xlink" x="0px" y="0px"
	 width="200px" height="126px" viewBox="0 0 200 126" style="enable-background:new 0 0 200 126;" xml:space="preserve">
<style type="text/css">
	.st0{fill-rule:evenodd;clip-rule:evenodd;fill:#FFFFFF;}
</style>
<g>
	<path class="st0" d="M110.7,73.6l0.5-1.8l3.4,0l-0.5,1.9L110.7,73.6z M127.4,92.4l-0.2,1.7l6.8,0l0.6-0.1l0.6-0.3l0.5-0.5l0.4-0.6
		l0.5-2l-0.1-0.6l-0.2-0.3l-0.4-0.2l-3.8,0l-0.2-0.1l-0.1-0.3l0.1-0.1l0.2-0.1l3.7,0l0.7,0.2l0.4,0.2l0.1-1.8h-6.4l-0.7,0.3
		l-0.6,0.3l-0.5,0.6l-0.5,2l0,0.6l0.1,0.4l0.3,0.2l0.2,0.1l0.2,0l3.7,0.1l0.2,0.2l0,0.3l-0.3,0.2h-4.2L127.4,92.4z M127.6,89.2
		l0.1-1.8h-5.9l-0.5,0.2l-0.6,0.3l-0.4,0.5l-0.3,0.5L119,92v1.3l0.1,0.2l0.3,0.3l0.3,0.2l0.2,0.1l0.2,0.1l5.7,0l0.7-1.8l-0.7,0.3
		l-0.6,0.1l-2.3,0l-0.3-0.1l-0.2-0.1l0-0.6l0.7-2.9l0.3-0.2l0.2-0.2h3L127.6,89.2z M119,87.4l-1.4,5.6l-0.1,0.5l0,0.3l0.2,0.4
		l-4.3,0l0.2-0.2l0.3-0.4l1.1-4.1l0.2-1l0-0.5l-0.2-0.5L119,87.4z M104.9,87.4h3.3l0.1,0.6l0.3-0.3l0.2-0.1l0.2-0.1h3.8l0.2,0.1
		l0.2,0.1l0.3,0.2l0.2,0.2l0.2,0.3l0.1,0.3l-0.1,0.7l-0.9,3.5l-0.3,0.5l-0.4,0.3l-0.4,0.3l-0.6,0.2l-0.9,0.1l-2.7,0l-0.3-0.2
		l-0.3-0.3l-0.4,1.6l0,1.4l-3.7,0l2.1-8.4l0-0.4l0,0L104.9,87.4z M108.6,88.7l-0.2,0.2l-0.2,0.3l-0.7,3l0,0.3l0.1,0.1l1.8,0l0.2-0.2
		l0.9-3.3l0-0.3l-0.2-0.2H108.6z M93.7,89l-1.1,4.4l0.2,0.7h-3.8l0-0.2l0.4-0.5l0.2-0.6l1-4l0.1-0.8l-0.1-0.7l3.3,0l-0.1,0.5l0,0.1
		l0.4-0.4l0.2-0.2l0.2-0.1l3.9,0l0.2,0.1l0.2,0.2l0.1,0.2l0.2,0l0.1-0.3l0.3-0.2l0.4,0l2.9,0l0.4,0.2l0.3,0.2l0.2,0.3l0.1,0.9
		l-0.1,0.6l-0.4,1.7l-0.4,1.6l0,1.4h-3.9l0.5-0.7l0.2-0.4l1-3.9l-0.1-0.3l-0.3,0l-1,0l-0.2,0.1L98.7,89l-1,4.2l0,0.5l0.2,0.5l-3.9,0
		l0.2-0.2l0.4-0.7l1.1-4l0-0.3l-0.3-0.2l-1.1,0L93.7,89z M80.2,87.4l0.1,1.2L79.4,92l0,1l0.1,0.4l0.2,0.3l0.3,0.2l0.5,0.2l0.4,0l3,0
		l0.4-0.2l0.2-0.1l0.1-0.1l-0.1,0.8l-0.2,0.5l-0.3,0.2l-3.8,0l-1.1-0.3l-0.2,1.7h7.4l0.5-0.2l0.4-0.3l0.4-0.5l0.2-0.8l1.8-7.5
		l-3.6,0l0,1l-1.1,4.1l-0.2,0.2l-1.6,0l-0.3-0.1l0.1-0.4l1.2-4.9H80.2z M76,84.9l0,1.4l-1.8,7l-0.5,0.8H78l-0.3-0.4l0-0.4l2-8v-0.5
		L76,84.9z M68.2,86.8L68,87.1l-1.2,5l0.1,0.3l0.3,0.1l1.7,0l0.3-0.1l0.2-0.2l0.1-0.3l1.2-4.8l0-0.6l-0.2-0.1h-2.1L68.2,86.8z
		 M64.9,86.2l-1.7,5.7l0,1.1l0.3,0.6l0.3,0.3l0.4,0.2l6.5,0l0.8-0.1l0.5-0.4l0.4-0.3l0.4-0.5l1.5-5.3l0.1-0.9L74.3,86L74,85.4
		l-0.7-0.4L73.1,85l-6.3,0l-0.7,0.2l-0.5,0.2l-0.4,0.4L64.9,86.2z M119.6,84.9l-0.4,1.9l-3.4,0l0.4-1.9L119.6,84.9z M70.8,107.6H72
		l0.5-2.7c0.2,0,0.4,0,0.7,0c0.8,0,1.7-0.2,2.2-0.7c0.5-0.4,0.9-1.1,0.9-1.9c0-0.6-0.2-1.1-0.7-1.4c-0.5-0.4-1.2-0.5-1.8-0.5
		c-0.6,0-1.3,0.1-1.7,0.2L70.8,107.6z M73.1,101.5c0.2,0,0.4-0.1,0.7-0.1c0.7,0,1.2,0.3,1.2,1c0,0.8-0.7,1.5-1.7,1.5
		c-0.3,0-0.5,0-0.6-0.1L73.1,101.5z M80.2,106.4c-0.4,0.2-0.8,0.3-1.4,0.3c-0.5,0-0.9-0.2-1.1-0.5c-0.1-0.2-0.2-0.5-0.1-0.7
		c2,0,3.4-0.4,3.4-1.7c0-0.9-0.6-1.4-1.7-1.4c-1.8,0-2.9,1.7-2.9,3.2c0,1.3,0.7,2.1,2.1,2.1c0.6,0,1.3-0.2,1.8-0.4L80.2,106.4z
		 M79.7,103.8c0,0.6-0.8,0.8-2.1,0.8c0.2-0.6,0.7-1.3,1.4-1.3C79.5,103.3,79.7,103.5,79.7,103.8L79.7,103.8z M82.5,107.6l0.5-2.4
		c0.2-1.2,0.9-1.9,1.5-1.9c0.5,0,0.6,0.3,0.6,0.8c0,0.2,0,0.4-0.1,0.6l-0.5,2.9h1.2l0.6-3c0.1-0.3,0.1-0.6,0.1-0.8
		c0-1-0.6-1.4-1.3-1.4c-0.7,0-1.4,0.3-1.8,1h0l0.1-0.9h-1.1c-0.1,0.5-0.1,1-0.3,1.6l-0.7,3.5H82.5z M88.4,107.6l0.4-2.4
		c0.2-1.2,0.9-1.9,1.5-1.9c0.5,0,0.6,0.3,0.6,0.8c0,0.2,0,0.4-0.1,0.6l-0.6,2.9h1.2l0.6-3c0.1-0.3,0.1-0.6,0.1-0.8
		c0-1-0.6-1.4-1.3-1.4c-0.7,0-1.4,0.3-1.8,1h0l0.1-0.9h-1.1c-0.1,0.5-0.1,1-0.3,1.6l-0.7,3.5H88.4z M92.8,107.4
		c0.3,0.2,0.8,0.4,1.4,0.4c1.2,0,2.2-0.6,2.2-1.8c0-0.7-0.5-1.1-1.1-1.4c-0.4-0.2-0.7-0.4-0.7-0.7c0-0.4,0.3-0.6,0.8-0.6
		c0.4,0,0.8,0.1,1,0.2l0.3-0.9c-0.2-0.1-0.7-0.3-1.2-0.3c-1.2,0-2.1,0.7-2.1,1.7c0,0.6,0.4,1,1,1.3c0.5,0.3,0.7,0.5,0.7,0.8
		c0,0.4-0.3,0.6-0.8,0.6c-0.5,0-1-0.2-1.2-0.3L92.8,107.4z M97.4,102.5l1,4.8c0,0.1,0,0.2,0,0.2c-0.2,0.4-0.6,0.8-0.9,1
		c-0.3,0.2-0.7,0.4-0.9,0.5l0.3,1.1c0.3-0.1,1-0.3,1.6-0.9c0.7-0.7,1.3-1.6,1.9-2.8l1.9-3.8h-1.3l-1.1,2.5c-0.2,0.6-0.4,0.9-0.5,1.2
		h0c0-0.4-0.1-0.7-0.2-1.3l-0.4-2.5H97.4z M103.4,107.6l1.4-7.5h-1.2l-1.4,7.5H103.4z M105.1,102.5l0.9,5.2h1.2l2.9-5.2h-1.4
		l-1.3,2.6c-0.3,0.6-0.4,1-0.6,1.3h0c0-0.3-0.1-0.7-0.2-1.4l-0.3-2.6H105.1z M114.3,107.6c0-0.6,0.1-1.6,0.2-2.3l0.5-2.7
		c-0.4-0.1-1-0.2-1.6-0.2c-2.4,0-3.6,1.9-3.6,3.6c0,1,0.6,1.8,1.5,1.8c0.7,0,1.3-0.3,1.9-1.3h0c0,0.4-0.1,0.8-0.1,1.1H114.3z
		 M113.4,104.7c-0.2,1.3-0.9,2-1.5,2c-0.5,0-0.7-0.4-0.7-1c0-1.2,0.9-2.5,2-2.5c0.2,0,0.4,0,0.5,0.1L113.4,104.7z M116.8,107.6
		l0.4-2.4c0.2-1.2,0.9-1.9,1.5-1.9c0.5,0,0.6,0.3,0.6,0.8c0,0.2,0,0.4-0.1,0.6l-0.5,2.9h1.2l0.6-3c0.1-0.3,0.1-0.6,0.1-0.8
		c0-1-0.6-1.4-1.3-1.4c-0.7,0-1.4,0.3-1.9,1h0l0.1-0.9h-1.1c-0.1,0.5-0.1,1-0.3,1.6l-0.7,3.5H116.8z M122.6,107.6l1-5.2h-1.2l-1,5.2
		H122.6z M123.1,101.7c0.4,0,0.8-0.3,0.8-0.7c0-0.4-0.3-0.7-0.7-0.7s-0.7,0.3-0.7,0.7C122.5,101.5,122.8,101.7,123.1,101.7
		L123.1,101.7z M128.5,107.6c0-0.6,0.1-1.6,0.2-2.3l0.5-2.7c-0.4-0.1-1-0.2-1.6-0.2c-2.4,0-3.6,1.9-3.6,3.6c0,1,0.6,1.8,1.5,1.8
		c0.7,0,1.4-0.3,1.9-1.3h0c0,0.4-0.1,0.8-0.1,1.1H128.5z M127.6,104.7c-0.2,1.3-0.9,2-1.5,2c-0.5,0-0.7-0.4-0.7-1
		c0-1.2,0.9-2.5,2-2.5c0.2,0,0.4,0,0.5,0.1L127.6,104.7z M99.8,36.9c2.2,0,4,1.8,4,3.9c0,2.2-1.8,3.9-4,3.9c-2.2,0-4-1.8-4-3.9
		C95.8,38.7,97.6,36.9,99.8,36.9L99.8,36.9z M111.7,16c-1,0-1.9,0.8-1.9,1.9s0.8,1.9,1.9,1.9s1.9-0.8,1.9-1.9S112.7,16,111.7,16
		L111.7,16z M111.5,34.1l-1.5-0.5l0-1.6l0.1-2.1l0-1.7l-0.1-2.4l0-1.7l-0.2-0.8l-1.6,0.7l-1.8,0.7l-1.4,0.6l-1,0.4l-0.2,0l-1.1-1.3
		l1.3-0.6l1.5-0.7l1.3-0.6l1.8-0.7l-1.5-0.4l-1.5-0.3l-1.6-0.1l-1.4-0.1l-1.7-0.1l-0.1-1.3l1.1,0l2.4,0.1l1.8,0.3l1.5,0.3l1.2,0.2
		l-1.1-0.7l-1-0.6l-1.2-0.6l-1.2-0.7l-1.6-0.7l0.9-0.7l1.2,0.5l1.4,0.7l2,1.2l1.5,1l1.3,1.1l0.2,0.8l0.2,1.6l0.2,2.3l0.1,2.9l0,2.1
		l0,1.7L111.5,34.1z M88.5,34.1l1.5-0.5l0-1.6l-0.1-2.1l0-1.7l0.1-2.4l0-1.7l0.2-0.8l1.6,0.7l1.8,0.7l1.4,0.6l1,0.4l0.2,0l1.1-1.3
		L96,23.9l-1.5-0.7l-1.3-0.6l-1.9-0.7l1.5-0.4l1.5-0.3l1.6-0.1l1.4-0.1l1.7-0.1l0.1-1.3l-1.1,0l-2.4,0.1L93.9,20l-1.5,0.3l-1.2,0.2
		l1.1-0.7l1-0.6l1.2-0.6l1.2-0.7l1.6-0.7l-0.9-0.7l-1.2,0.5l-1.4,0.7l-2,1.2l-1.5,1l-1.3,1.1l-0.2,0.8l-0.2,1.6l-0.2,2.3l-0.1,2.9
		l0,2.1l0,1.7L88.5,34.1z M88.3,16c1,0,1.9,0.8,1.9,1.9c0,1.1-0.8,1.9-1.9,1.9c-1,0-1.9-0.8-1.9-1.9C86.4,16.9,87.3,16,88.3,16
		L88.3,16z M121.5,27.1L121,28c0,0-0.1-0.2-0.9-0.9c-0.8-0.7-1.2-0.9-1.6-1.2c-0.3-0.3-1.3-0.9-1.3-0.9l-0.6-0.3l-1.1-0.6l-0.6-0.2
		l1.1,1.2l1.4,1.4l1.2,1.5l1,1.3v0.3l-0.5,0.6c0,0-0.2-0.1-0.3-0.3c-0.1-0.2-0.9-1.1-0.9-1.1l-0.7-0.9l-0.7-0.8l-0.9-1l-0.9-0.9
		l-0.7-0.6l0.1,0.7l0.1,1.2l0.1,1.1l0,1.5v1.8l-0.1,1.4l-0.1,1.7l-0.1,0.9l-0.5-0.1l-0.6-0.2l-0.3,0v-1.1l0.2-2.7l0-4.1l-0.1-1.8
		l-0.3-1.7l-0.2-0.6l0.1-0.8l0.5-0.3l1-0.4l1.1-0.3l1.4-0.2l0.7,0l1.1,1.1l0.1,0.1l-1.4,0.2l-1.1,0.2l-1,0.2l1.1,0.5l1.6,0.8
		l1.6,1.1l1.2,0.9l1,0.9L121.5,27.1z M78.5,27.1L79,28c0,0,0.1-0.2,0.9-0.9s1.2-0.9,1.6-1.2s1.3-0.9,1.3-0.9l0.6-0.3l1.1-0.6
		l0.6-0.2l-1.1,1.2l-1.4,1.4l-1.2,1.5l-1,1.3v0.3l0.5,0.7c0,0,0.2-0.1,0.3-0.3c0.1-0.2,0.9-1.1,0.9-1.1l0.7-0.9l0.7-0.8l0.9-1
		l0.9-0.9l0.7-0.6l-0.1,0.7l-0.1,1.2l-0.1,1.1l0,1.5V31l0.1,1.3l0.1,1.7l0.1,0.9l0.5-0.1l0.6-0.2l0.3,0v-1.1L87,30.7l0-4.1l0.1-1.8
		l0.3-1.7l0.2-0.6l-0.1-0.8l-0.5-0.3l-1-0.4l-1.1-0.3l-1.4-0.2l-0.7,0l-1.1,1.1l-0.1,0.2l1.4,0.2l1.1,0.2l1,0.2L84.2,23l-1.6,0.8
		L81,24.9l-1.2,0.9l-1,0.9L78.5,27.1z M123.2,35l-0.3,0.1h-1l-0.6-0.3l-0.5-0.5l-0.4-0.6L120,33l-0.2-0.7l0-1.5l0.3-0.7l0.6-0.4
		l0.5-0.2l0.5,0l0.4,0.1l0.4,0.2l0.4,0.3l0.2,0.3l0.4,0.5l0.2,0.4l0.2,0.4l0.1,0.5l0,0.5v0.6l0,0.4l-0.2,0.4l-0.2,0.3l-0.2,0.2
		L123.2,35z M76.9,35.1l0.3,0.1h1l0.6-0.3l0.5-0.5l0.4-0.6l0.4-0.7l0.2-0.7l0-1.5L80,30.3l-0.6-0.4l-0.5-0.2l-0.5,0.1L78,29.8
		l-0.4,0.2l-0.4,0.3l-0.2,0.3l-0.4,0.5l-0.2,0.4L76.2,32L76,32.5l0,0.5v0.6l0,0.4l0.2,0.5l0.2,0.3l0.2,0.2L76.9,35.1z M124.4,36.2
		l0,0.9l0.2,0.8l0.2,1l0.1,0.6l0.1,0.8l0.1,1.6l0,1.9V45l0,1.2l0,0.3l0.2-1.2l0.2-1.6l0.2-1.8l0.1-1.5l0-1.9l-0.1-1.1l-0.2-0.9
		l-0.2-1.1l-0.2-1l-0.3-1l-0.2-0.8l-0.2-0.8l-0.1-0.2l0.2,1.7l0,0.5l0,1.4l-0.1,0.4l-0.1,0.4L124.4,36.2z M75.7,36.3l0,0.9L75.5,38
		l-0.2,1l-0.1,0.6l-0.1,0.8L75,42l0,1.9v1.2l0,1.2l0,0.3l-0.2-1.2l-0.2-1.6l-0.2-1.8l-0.1-1.5l0-1.9l0.1-1.1l0.2-0.9l0.2-1.1l0.2-1
		l0.3-1l0.2-0.8l0.2-0.8l0.1-0.2l-0.2,1.7l0,0.5l0,1.4l0.1,0.4l0.1,0.4L75.7,36.3z M116.8,45.5l0.2,2.4l0.8-0.4l1.4-0.9l1.2-1l1-0.9
		l0.8-0.7l0.4-0.6l0.2-0.3l-0.2,0.6l-0.2,0.7l-0.6,1.3l-0.3,0.8l-0.5,1.1l-0.7,1.4l-1,1.7l0,0.4l0.6,1.1h0.2l0.7-1.1l0.5-1l0.5-1
		l0.5-1.1l0.5-1.2l0.4-0.8l0.3-1.1l0.2-0.7l-0.1,1.4l-0.1,0.8l-0.2,1.2l-0.2,1.3l-0.3,1.3l-0.4,1.6l-0.4,1l-0.5,1.2l-0.5,1.1
		l-0.5,0.8l-0.5,0.8l-0.4,0.8l-0.6,0.7l-0.2,0.3l0,0.1l0.2,0l0.2-0.2l0.8-1.1l0.9-1.3l1-1.7l0.7-1.4l0.5-1.1l0.5-1.8l0.4-1.1
		l0.3-1.4l0.2-1.4l0.1-1.7l0-1.9l-0.1-1.5l-0.2-1.4l-0.3-1.4l-0.2-0.3l-0.2-0.2l-0.2-0.1l-1.3-0.1l-0.9-0.1l-1.1-0.2l-0.8-0.2
		l-1.3-0.2l-1.4-0.3l-0.1,2.1l1.3,0.3l1.7,0.3l1.4,0.3l1.3,0.2l0.6,0.1l0,0.2l-0.4,0.5l-1.1,1.3l-1,1l-0.6,0.5L119,44l-0.8,0.5
		l-0.6,0.4l-0.5,0.3L116.8,45.5z M83.3,45.5l-0.2,2.4l-0.8-0.4L81,46.6l-1.2-1l-1-0.9L78,44l-0.4-0.6l-0.2-0.3l0.2,0.6l0.2,0.7
		l0.6,1.3l0.3,0.8l0.5,1.1L80,49l1,1.7l0,0.4l-0.6,1.1h-0.2l-0.7-1.1l-0.6-1l-0.5-1L77.9,48l-0.5-1.2L77.1,46L76.7,45l-0.2-0.7
		l0.1,1.4l0.1,0.8l0.1,1.2l0.2,1.3l0.3,1.3l0.4,1.6l0.3,1l0.5,1.2l0.5,1.1l0.5,0.8l0.5,0.8l0.4,0.8l0.6,0.7l0.2,0.3l0,0.1l-0.2,0
		l-0.2-0.2l-0.8-1.1l-0.9-1.3l-1-1.7l-0.7-1.4l-0.5-1.1l-0.5-1.8L76,49.2l-0.3-1.4l-0.2-1.4l-0.1-1.7l0-1.9l0-1.5l0.3-1.4l0.3-1.4
		l0.2-0.3l0.2-0.2l0.2-0.1l1.3-0.1l0.9-0.1l1.1-0.2l0.8-0.2l1.3-0.2l1.4-0.3l0.1,2.1l-1.3,0.3l-1.7,0.3l-1.4,0.3l-1.3,0.2l-0.6,0.1
		l0,0.2l0.4,0.5l1.1,1.3l1,1l0.6,0.5l0.8,0.6l0.8,0.5l0.6,0.4l0.5,0.3L83.3,45.5z M88.8,40.1l3.6,3.9l3.5,3.2l2.2,1.6l0.8,1.2
		l0.1,2.5l0.3,15.3l-2.2-0.1l-0.4-5l-0.2-4.4l0-4.6l-2.6,1.2L91,56.1l-3.1,1.2l-1.3-2l2.1-1l2-0.8l1.8-0.8l1.9-0.9l-2.7-0.6
		l-4.5-1.3l-3-1.4l0.2-2.4l1.8,0.8l1.7,0.7l1.4,0.5l1.3,0.4l1.1,0.3l1.3,0.2l1.8,0.4l-0.5-0.5l-1-0.9L92,46.7l-1.5-1.4L89.4,44
		l-1-1.2l-1-1.3L88.8,40.1z M111.1,40l1.6,1.5l-2.2,2.8l-2.3,2.4l-2.9,2.5l-0.1,0l1.6-0.2l2.9-0.6l3.9-1.2l2.2-1l0.3,2.4l-2.1,0.9
		l-2.6,1l-3,0.8l-2.6,0.7l1.9,0.9l6,2.7l-1.3,2l-8.6-3.7V58l-0.3,5.5l-0.4,4.2l-2.2,0l0.4-18l0.6-0.9l1.2-0.9l2.7-2.1l2.1-1.8
		l2.3-2.6L111.1,40z M126,71.8h3.8l-2,8.2l0.1,1l-4.2,0l0.5-0.7l1.8-7.2l0.1-0.5v-0.4L126,71.8z M115.2,76l0.6-1.7l6.8,0.1l0.8,0.4
		l0.3,0.4l0.1,0.6l0,0.6l-1,3.9l0.1,0.9l-3.4,0l0-0.6l-0.3,0.3l-0.4,0.1l-0.3,0.1l-3.6,0l-0.3-0.1l-0.3-0.2l-0.2-0.3l-0.1-0.3v-0.5
		l0-0.4l0.2-0.8l0.1-0.4l0.1-0.3l0.2-0.3l0.2-0.3l0.2-0.2l0.4-0.2l0.4-0.2l0.4,0l3.8-0.1l0.2-0.1l0.1-0.2l0-0.2l-0.1-0.2l-4-0.1
		l-0.5,0.1l0,0L115.2,76z M119.8,77.4l-0.4,1.6l-0.2,0.2l-0.2,0h-1.4l-0.1-0.2l-0.1-0.2l0.4-1.3l0.2-0.1L119.8,77.4z M110.3,74.3
		l3.7,0l-1.4,5.8l0.1,0.9l-4.2,0l0.4-0.6l0.1-0.3l1.1-4.5l0.1-0.5L110.3,74.3z M108.1,79.4l-0.7,1.7l-5.7,0l-0.5-0.1l-0.4-0.3
		l-0.3-0.3l0-0.4l0-0.8l0.6-2.1l0.6-1.7l0.3-0.4l0.5-0.3l0.5-0.2l0.5-0.1l5.5-0.1l0.1,0l-0.1,1.7L109,76l-0.7-0.3l-2.9,0l-0.3,0.1
		l-0.2,0.1l-0.2,0.2l-0.8,3l0,0.2l0.1,0.2l2.7,0l0.5-0.1L108.1,79.4z M99.3,79.4l-0.8,1.7h-7.2l-0.5-0.2l-0.4-0.4l-0.1-0.6l0.2-0.9
		l0.9-3.4l0.3-0.5l0.6-0.5l0.4-0.2l0.5-0.1h6.2l0.4,0.2l0.3,0.2l0.2,0.4l0.1,0.4l-0.7,3L94,78.5L93.9,79l0,0.5l0.2,0.2l0.4,0.1
		l3.9,0l0,0L99.3,79.4z M96.6,77l0.2-1.2l-0.3-0.2L95,75.6l-0.3,0.2l-0.3,1.1l0,0.1H96.6z M81.4,74.2h3.3l0,0.6l0.8-0.5l3.8,0
		l0.4,0.2l0.3,0.3l0.2,0.3l0.1,1.1l-0.8,3.2L89.1,80l-0.5,0.5l-0.5,0.4L87.7,81H84l-0.4-0.2l-0.2-0.2L83,82.9l0.1,0.7h-3.8l0.2-0.5
		l1.9-7.9V74.2z M84.6,76.1l-0.8,3l-0.1,0.5l0.3,0.1h1.5l0.3-0.2l0.9-3.5l-0.1-0.2l-0.3-0.1H85L84.6,76.1z M80.6,71.9l-0.1,1.9
		L80,73.6l-4.5-0.1l-0.3,0.3l-0.1,0.8l0.2,0.2h3.2l0.5,0.1l0.5,0.2l0.3,0.3l0.2,0.4v0.7l-0.9,3.3l-0.5,0.6l-0.8,0.6L77,81.1l-6.7,0
		l0.1-1.8l0.7,0.2l4.5,0l0.2-0.5l0.1-0.8h-4.3l-0.3-0.2L71,77.4L71,76.9l0.1-0.5l0.4-1.7l0.5-1.4l0.6-0.8l0.7-0.4l0.4-0.2L80.6,71.9
		z"/>
</g>
</svg>
