<?xml version="1.0" encoding="utf-8"?>
<!-- Generator: Adobe Illustrator 23.0.3, SVG Export Plug-In . SVG Version: 6.00 Build 0)  -->
<svg version="1.1" id="Layer_1" xmlns="http://www.w3.org/2000/svg" xmlns:xlink="http://www.w3.org/1999/xlink" x="0px" y="0px"
	 width="200px" height="126px" viewBox="0 0 200 126" style="enable-background:new 0 0 200 126;" xml:space="preserve">
<style type="text/css">
	.st0{fill:#FFFFFF;}
</style>
<g>
	<path class="st0" d="M42,77.7c-1.4,0-2.7-0.7-3.4-1.7c-0.4-0.6-0.6-1.3-0.6-2.1c0-0.7,0.2-1.4,0.5-2.2c0,0,1.7-3.9,1.8-4.1
		c-0.2-0.1-6.2-2.8-6.2-2.8l9.1-3.9l2.5-5.9c0.7-1.6,2.5-2.4,3.9-2.4l12.5,0l37.2-15.9l32.2,13.5l0,0.2c0,0-26.4,2-26.6,2
		c0,0,0,0.1-0.1,0.2c0.3,0,53.1,0,53.1,0c1.6,0,3.1,0.7,3.8,1.8c0.3,0.5,0.5,1.1,0.5,1.7c0,0.5-0.1,1.1-0.4,1.6c0,0-1.9,4.3-2,4.5
		c0.2,0.1,6,2.5,6,2.5l-8.7,3.7l-3.1,6.8c-0.7,1.6-2.5,2.4-3.9,2.4l-14.5,0L99.2,93.2L68.9,80c0,0,25.5-2.1,25.7-2.1
		c0,0,0-0.1,0.1-0.2C94.3,77.7,42,77.7,42,77.7L42,77.7z M138.8,82.5h0.2c0.2,0,0.4-0.1,0.4-0.3c0-0.1-0.1-0.3-0.4-0.3
		c-0.1,0-0.1,0-0.2,0V82.5z M138.8,83.4h-0.3v-1.7c0.1,0,0.3,0,0.5,0c0.3,0,0.4,0,0.5,0.1c0.1,0.1,0.2,0.2,0.2,0.4
		c0,0.2-0.1,0.4-0.3,0.4v0c0.2,0,0.3,0.2,0.3,0.4c0,0.3,0.1,0.4,0.1,0.4h-0.3c0-0.1-0.1-0.2-0.1-0.4c0-0.2-0.2-0.3-0.4-0.3h-0.2
		L138.8,83.4L138.8,83.4z M139.1,81.2c-0.7,0-1.2,0.6-1.2,1.3c0,0.7,0.6,1.3,1.3,1.3c0.7,0,1.2-0.6,1.2-1.3S139.8,81.2,139.1,81.2
		L139.1,81.2z M139.1,81c0.8,0,1.5,0.7,1.5,1.5c0,0.9-0.7,1.6-1.5,1.6c-0.8,0-1.5-0.7-1.5-1.6C137.6,81.7,138.3,81,139.1,81
		L139.1,81z M128.1,70.9h-3c0.1-0.3,4.6-11,4.6-11.1h3c-0.1,0.2-0.8,2-0.8,2h6.4l1.6-3.8c0.3-0.8,0.3-1.5,0-2
		c-0.3-0.5-1-0.8-1.7-0.8h-9.6c-1.2,0-3.3,0.3-4.1,2.2l-6.2,14.9c-0.3,0.8-0.3,1.5,0.1,2c0.3,0.5,0.9,0.8,1.7,0.8H130
		c1.3,0,3-0.7,3.5-2l2.2-5.3h-6.4C129.3,68,128.2,70.8,128.1,70.9L128.1,70.9z M146.6,70.9h-3c0.1-0.3,4.6-11,4.6-11.1h3
		C151.1,60.1,146.7,70.8,146.6,70.9L146.6,70.9z M158.3,56.1c-0.3-0.5-1-0.8-1.7-0.8h-9.6c-1.2,0-3.3,0.3-4.1,2.2l-6.2,14.9
		c-0.3,0.8-0.3,1.5,0,2c0.3,0.5,0.9,0.8,1.7,0.8h10.2c1.3,0,3-0.7,3.5-2l6.3-15.2C158.7,57.3,158.6,56.6,158.3,56.1L158.3,56.1z
		 M109.6,70.9h-3c0.1-0.3,4.6-11,4.6-11.1h3C114.1,60.1,109.7,70.8,109.6,70.9L109.6,70.9z M121.3,56.1c-0.3-0.5-1-0.8-1.7-0.8h-9.6
		c-1.2,0-3.3,0.3-4.1,2.2l-6.2,14.9c-0.3,0.8-0.3,1.5,0.1,2c0.3,0.5,0.9,0.8,1.7,0.8h10.1c1.3,0,3-0.7,3.5-2l6.3-15.2
		C121.6,57.3,121.6,56.6,121.3,56.1L121.3,56.1z M58.5,64.8c0,0-6.1-1.9-6.3-2c0.1-0.2,1.2-2.8,1.3-3h3.1c-0.1,0.3-0.8,2-0.8,2h6.4
		l1.6-3.8c0.3-0.8,0.3-1.5-0.1-2c-0.3-0.5-0.9-0.7-1.7-0.7h-9.7c-2.1,0-3.5,0.7-4.1,2.2l-2.5,5.9c-0.1,0.3-0.2,0.7-0.2,1
		s0.1,0.6,0.2,0.8c0.2,0.4,0.6,0.8,1.1,0.9c0,0,6.1,2,6.3,2c-0.1,0.2-1,2.6-1.1,2.7h-3c0.1-0.3,0.9-2.3,0.9-2.3h-6.4l-1.6,3.8
		c-0.4,1-0.2,1.7,0.1,2c0.3,0.5,1,0.8,1.7,0.8h10c1.5,0,3.1-0.9,3.6-1.9l2.4-5.8c0.1-0.3,0.2-0.6,0.2-0.9c0-0.3-0.1-0.6-0.2-0.8
		C59.5,65.3,59.1,65,58.5,64.8L58.5,64.8z M83.3,55.3h-6.4c0,0-6.5,15.5-6.5,15.6h-3c0.1-0.3,6.5-15.6,6.5-15.6h-6.4l-7.2,17.2
		c-0.3,0.8-0.3,1.5,0.1,2c0.3,0.5,0.9,0.8,1.7,0.8h10.1c1.5,0,3.2-0.9,3.6-2c0.3-0.8,7.4-17.7,7.5-17.8L83.3,55.3z M93.3,55.3l0,0.2
		c0,0,3.7,0.9,3.9,0.9c-0.1,0.2-3,7.3-3.3,7.9c-0.1-0.7-1.5-9.1-1.5-9.1h-6.3l-8.3,20h6.5c0,0,3.5-8.3,3.7-8.9
		c0.1,0.7,1.7,8.9,1.7,8.9h6l8.3-20H93.3z M140.2,89.9c0.1-0.2,2.4-3.3,2.4-3.3l9.5,18.1l-20.1-3.8c0,0,2.1-2.9,2.3-3
		c-0.2-0.1-12.7-9.4-14.3-10.6l10.7-4.5C131.9,83.7,140,89.8,140.2,89.9L140.2,89.9z M61,43.6c-0.1,0-2.3,0.6-2.3,0.6L44.5,33.7
		c0,0,7.5-3,7.6-3c0-0.1,0.8-8.2,0.8-8.2L67.1,33c0,0-0.1,2.5-0.1,2.6c0.1,0.1,8.9,6.6,10.3,7.7l-10.5,4.5l-0.2,0.1
		C65.7,47.1,61.1,43.7,61,43.6L61,43.6z M150,80.4c2.3,0,5.2-1.4,6.3-4l2.6-5.9l13.5-5.8c0,0-9-3.8-9.2-3.9c0.1-0.2,0.9-2,0.9-2
		c0.4-0.9,0.6-1.8,0.6-2.7c0-1.1-0.3-2.2-0.9-3.1c-1.2-1.9-3.5-3-6-3h-20.1L99.3,33.9l-19.5,8.3c-1.4-1-10.3-7.7-10.4-7.7
		c0-0.1,0.1-2.6,0.1-2.6L50.9,18.1c0,0-1,10.7-1,10.9C49.8,29,39.8,33,39.8,33l18.5,13.7c0,0,2.2-0.6,2.3-0.6c0.1,0,2.9,2.1,3.6,2.7
		L61.5,50l-12,0c-2.2,0-5.2,1.3-6.4,4l-2.1,4.9l-13.6,5.8c0,0,9.1,4.1,9.3,4.2c-0.1,0.2-0.7,1.7-0.7,1.7c-0.5,1.1-0.7,2.2-0.7,3.2
		c0,1.3,0.4,2.5,1.1,3.6c1.2,1.8,3.3,2.9,5.6,2.9h21.1l36,15.7l18.3-7.8c1.6,1.2,13.4,9.9,13.5,10c-0.1,0.2-3.1,4.2-3.1,4.2
		l28.5,5.4l-13.5-25.7c0,0-3.1,4.2-3.3,4.4c-0.1-0.1-5.6-4.1-6.7-4.9l3-1.3L150,80.4z"/>
</g>
</svg>
