<?xml version="1.0" encoding="utf-8"?>
<!-- Generator: Adobe Illustrator 23.0.3, SVG Export Plug-In . SVG Version: 6.00 Build 0)  -->
<svg version="1.1" id="Layer_1" xmlns="http://www.w3.org/2000/svg" xmlns:xlink="http://www.w3.org/1999/xlink" x="0px" y="0px"
	 width="200px" height="126px" viewBox="0 0 200 126" style="enable-background:new 0 0 200 126;" xml:space="preserve">
<style type="text/css">
	.st0{fill:#FFFFFF;}
</style>
<g transform="matrix(1.25 0 0 -1.25 -598.84 505.34)">
	<path class="st0" d="M499.3,378.6v-1.2c3.4-0.5,3.3-0.3,3.3-4.5v-13.4c0-7.5,2.2-12.3,9-12.9v-12c0-4.7,0.2-4.5-3.7-5v-1.3h0h13
		c10.7,0,17,8.6,17,18.7c0,8.2-3.3,13.8-9.7,15.9c0,0.3,0,0.5,0,0.7v8.4c2.8-3.7,5.6-7.4,8.4-11h0.6v10.8c0,0.4,0.1,0.7,0.1,1
		c0.1,0.7,0.6,0.9,1.4,1c1.5-0.2,1.4-0.1,1.4-1.9v-8.6c0-1.8,0.1-1.7-1.5-1.9V361h4.6v0.5c-1.5,0.2-1.5,0.1-1.5,1.9v8.6
		c0,1.6-0.1,1.7,1.1,1.8c0.6-0.2,1.1-0.9,1.6-2.6c1-3.2,2.2-6.9,3.3-10.2h0.9c1.4,3.9,2.9,7.8,4.3,11.7c0.3,0.7,0.6,1,1,1.1
		c1.1-0.2,1.1-0.2,1.1-1.8v-8.6c0-1.8,0.1-1.7-1.5-1.9V361h8.4l0.1,0.3V361h4.6v0.5c-1.5,0.2-1.5,0.1-1.5,1.9v3.5h1.6
		c2.1-3.8,2.6-5.9,3.6-5.9h1.8v0.2c-0.6,0.4-1.6,1.7-2.4,3.1l-1.7,2.8c1.3,0.6,2.4,1.9,2.4,3.9c0,2.2-1.7,3.2-3.5,3.2h-5v-0.5
		c1.5-0.2,1.5-0.1,1.5-1.9v-8.6c0-1.8,0.1-1.7-1.5-1.9l0.4,2.9H562c-0.8-2-0.7-2.8-3.2-2.8c-1.5,0-2.2,0.1-2.2,1.8v4.3h1.4
		c1.2,0,1.5-0.7,1.6-1.8h0.4v4.1h-0.4c0-1.2-0.5-1.7-1.6-1.7h-1.4v5.5h2.3c1.2,0,1.6-1,1.8-2.5h0.4v3.1h-6.9h-0.8h0h-2.9v-0.5
		c1.2,0,1.6-0.6,1.2-1.8c-1.1-2.9-2.1-5.9-3.2-8.8c-0.9,2.9-1.9,6.2-2.6,8.4c-0.6,1.8,0.1,2.1,1.1,2.1v0.5h-3.9h-0.8h-3.7h-0.1h-4.1
		v-0.5c1.1-0.1,1.7-0.4,1.8-1c0-0.3,0.1-0.6,0.1-1v-7.8h0c-2.6,3.5-5.2,7-7.8,10.4h-3.1v-0.5c1,0,1.5-0.6,2-1.3v-9
		c0-0.1,0-0.3,0-0.4c-1.2,0.3-2.6,0.5-4,0.6v8.8c0,0.9,0.2,1.7,0.2,2.4c0.2,1.6,1.5,2.3,3.3,2.5v1.2h-9v-1.2
		c1.8-0.2,3.1-0.9,3.3-2.5c0.1-0.7,0.2-1.5,0.2-2.4v-8.7h-13.6v-1.3c3.9-0.6,3.7-0.3,3.7-5v-8.6c-4.1,1-5.3,5.4-5.3,10.9v13.2
		c0,4.2-0.2,4,3.3,4.5v1.2L499.3,378.6L499.3,378.6z M576.3,374.5c-2,0-3.7-1.4-3.7-3.1c0-2.1,1.2-2.8,2.1-3.5
		c2.6-1.9,3.2-2.9,3.2-4.1c0-1.4-1-2.4-2.2-2.4c-1.3,0-2.6,0.8-2.8,3h-0.4v-2.7c0-0.2,0.1-0.2,0.1-0.3c0.9-0.4,1.8-0.6,2.9-0.6
		c2.1,0,4.2,1.3,4.2,3.5c0,1.6-0.6,2.6-2.4,4.1c-1.7,1.4-2.9,2.2-2.9,3.6c0,1.4,0.9,2,1.9,2c1.4,0,2-1.1,2.2-2.4h0.4v2.5
		c0,0.1,0,0.2-0.1,0.2C578.1,374.4,577.1,374.5,576.3,374.5L576.3,374.5z M580,374.3v-0.5c1.5-0.2,1.5-0.1,1.5-1.9v-8.6
		c0-1.8,0.1-1.7-1.5-1.9V361h4.6v0.5c-1.5,0.2-1.5,0.1-1.5,1.9v8.6c0,1.8-0.1,1.7,1.5,1.9v0.5H580z M584.8,374.3l-0.5-2.9h0.4
		c0.6,1.3,0.9,2.3,2.4,2.3h1.5v-10.4c0-1.8,0.1-1.7-1.5-1.9V361h4.6v0.5c-1.5,0.2-1.5,0.1-1.5,1.9v10.4h1.5c1.5,0,1.8-1,2.4-2.3h0.4
		l-0.5,2.9H584.8L584.8,374.3z M594.7,374.3v-0.5c0.8,0,1.3-0.5,1.8-1.7l2.6-5.8v-2.9c0-1.8,0.1-1.7-1.5-1.9V361h4.6v0.5
		c-1.5,0.2-1.5,0.1-1.5,1.9v2.1c0,0.5,0,1,0.2,1.4l2.9,5.8c0.5,0.9,0.9,1.2,1.4,1.2v0.5h-3.5v-0.5c1,0,1.6-0.6,1-1.7l-2.4-4.8
		l-2.1,4.8c-0.4,1-0.5,1.7,0.8,1.7v0.5L594.7,374.3L594.7,374.3z M565.1,373.7h1.3c1.3,0,2.3-0.7,2.3-2.8c0-2.2-0.7-3.4-2.2-3.4
		h-1.4V373.7L565.1,373.7z M610.3,369.9c-2.3,0-4.2-2-4.2-4.7c0-2.4,1.7-4.4,3.8-4.4c2.5,0,4.3,2.1,4.3,4.8
		C614.2,367.5,612.7,369.9,610.3,369.9L610.3,369.9z M614.3,369.7v-0.3c1-0.1,1-0.1,1-1.2v-5.6c0-1.2,0-1.1-1-1.2V361h3v0.3
		c-1,0.1-1,0.1-1,1.2v2.6h1.1c0.8,0,1-0.4,1-1.2h0.3v2.7h-0.3c0-0.8-0.3-1.1-1-1.1h-1.1v3.8h1.5c0.8,0,1-0.7,1.1-1.6h0.3v2
		L614.3,369.7L614.3,369.7z M610.1,369.4c1.4,0,2.8-1.2,2.8-4.2c0-1.7-0.6-4-2.7-4c-1.5,0-2.8,1.6-2.8,4.6
		C607.4,367.5,608.1,369.4,610.1,369.4L610.1,369.4z M515.7,362.1h4.6c0.4,0,0.7,0,1.1,0V360c0-6.1-2-10-5.7-11V362.1L515.7,362.1z
		 M523.4,361.8c6.3-1.3,9.6-6.6,9.6-14.9c0-12.8-5.3-17-12.1-17c-4.1,0-5.2,0.1-5.2,5.6v11.3c4.1,1.1,7.7,4.9,7.7,13V361.8
		L523.4,361.8z M561.5,357.9c-1.8-5.4-4.4-13.4-5.3-15.5c-0.2-0.5-0.5-0.8-0.9-1c-1.2,0.1-1.7,0.5-1.7,1.8v11.4
		c0,2.3-0.1,2.1,1.9,2.4v0.6h-5.9v-0.6c2-0.3,1.9-0.1,1.9-2.4v-11c0-2.3,0.1-2.1-1.9-2.4v-0.6h5h4h1.8l0.7,4.4h-0.5
		c-0.8-2.1-0.9-3.2-2.7-3.5c-0.4,0.3-0.5,0.9-0.3,1.5l1,3.3h5.6l0.9-3.1c0.4-1.1,0.2-1.9-1.2-1.9v-0.6h5.1v0.6
		c-0.9,0-1.3,0.8-1.8,2.1c-0.7,2.2-3,9.7-4.5,14.6L561.5,357.9L561.5,357.9z M590.4,357.9c-1.8-5.4-4.4-13.4-5.3-15.5
		c-0.4-0.8-1-1.2-1.6-1.2v-0.6h4v0.6c-1,0-1.4,0.8-1.1,1.8l1,3.3h5.6l0.9-3.1c0.4-1.1,0.2-1.9-1.2-1.9v-0.6h3.2h1.9h4v0.6
		c-2,0.3-1.9,0.1-1.9,2.4v4.5h2.1c2.7-4.9,3.4-7.6,4.7-7.6h0.9h1.3h9.5l0.7,4.4h-0.6c-1-2.6-0.9-3.6-4-3.6c-2,0-2.8,0.2-2.8,2.2v5.5
		h1.8c1.5,0,2-0.9,2-2.3h0.6v5.2h-0.6c0-1.5-0.6-2.1-2-2.1h-1.8v7h3c1.6,0,2-1.3,2.2-3.1h0.6v3.9h-9.8h0v-0.6c2-0.3,1.9-0.1,1.9-2.4
		v-11c0-1.9,0.1-2.1-1-2.3c-0.7,0.8-1.7,2.1-2.6,3.6l-2.2,3.6c1.7,0.7,3.1,2.5,3.1,5c0,2.9-2.2,4.1-4.4,4.1H596v-0.6
		c2-0.3,1.9-0.1,1.9-2.4v-11c0-1.6,0-2-0.7-2.2c-0.5,0.3-0.7,1-1.1,2c-0.7,2.2-3,9.7-4.5,14.6L590.4,357.9L590.4,357.9z
		 M565.2,357.6v-0.6c1.2,0,1.9-1,2.5-3.4l3.3-13h0.9l4.4,13.2l4.4-13.2h1l4.1,14.5c0.4,1.3,1.3,1.9,1.9,1.9v0.6h-4.8v-0.6
		c1.8,0,2.2-0.8,1.7-2.3c-1-3.5-1.9-6.9-2.9-10.3h0l-4.3,13h-0.8l-4.4-13.2h0l-2.6,10.5c-0.4,1.7,0.1,2.3,1.4,2.3v0.6L565.2,357.6
		L565.2,357.6z M538.3,357.6v-0.6c2-0.3,1.9-0.1,1.9-2.4v-11c0-2.3,0.1-2.1-1.9-2.4v-0.6h10.8l0.7,4.4h-0.6c-1-2.6-0.9-3.6-4-3.6
		c-2,0-2.8,0.2-2.8,2.2v5.5h1.8c1.5,0,2-0.9,2-2.3h0.6v5.2h-0.6c0-1.5-0.6-2.1-2-2.1h-1.8v7h3c1.6,0,2-1.3,2.2-3.1h0.6v3.9
		L538.3,357.6L538.3,357.6L538.3,357.6z M600.1,356.8h1.7c1.6,0,2.9-0.9,2.9-3.6c0-2.8-0.9-4.4-2.8-4.4h-1.8V356.8L600.1,356.8z
		 M561.4,355L561.4,355l2.4-7.9h-5L561.4,355L561.4,355z M590.4,355L590.4,355l2.4-7.9h-5L590.4,355z"/>
</g>
</svg>
