<?xml version="1.0" encoding="utf-8"?>
<!-- Generator: Adobe Illustrator 23.0.3, SVG Export Plug-In . SVG Version: 6.00 Build 0)  -->
<svg version="1.1" id="Layer_1" xmlns="http://www.w3.org/2000/svg" xmlns:xlink="http://www.w3.org/1999/xlink" x="0px" y="0px"
	 width="200px" height="126px" viewBox="0 0 200 126" style="enable-background:new 0 0 200 126;" xml:space="preserve">
<style type="text/css">
	.st0{fill-rule:evenodd;clip-rule:evenodd;fill:#FFFFFF;}
</style>
<g>
	<path class="st0" d="M37.3,54.6L37.3,54.6L37.3,54.6L37.3,54.6L37.3,54.6L37.3,54.6L37.3,54.6L37.3,54.6L37.3,54.6L37.3,54.6
		L37.3,54.6L37.3,54.6L37.3,54.6L37.3,54.6L37.3,54.6L37.3,54.6L37.3,54.6L37.3,54.6L37.3,54.6L37.3,54.6L37.3,54.6L37.3,54.6
		L37.3,54.6L37.3,54.6L37.3,54.6L37.3,54.6L37.3,54.6L37.3,54.6L37.3,54.6L37.3,54.6 M37.8,53.1c0,0,0-0.2,0-0.3
		c0-0.2,0.1-0.3,0.2-0.4c0,0,0.4-0.3,0.5-0.2c0,0-0.1,0.3-0.1,0.3c0,0.2-0.1,0.4-0.1,0.4s-0.1,0.2-0.2,0.3c0,0-0.1,0-0.1,0
		C37.9,53.3,37.9,53.2,37.8,53.1 M38.5,52.3L38.5,52.3L38.5,52.3L38.5,52.3 M38.5,52.2L38.5,52.2 M37.3,54.6L37.3,54.6L37.3,54.6
		L37.3,54.6L37.3,54.6L37.3,54.6L37.3,54.6L37.3,54.6L37.3,54.6L37.3,54.6L37.3,54.6L37.3,54.6L37.3,54.6L37.3,54.6L37.3,54.6
		L37.3,54.6L37.3,54.6L37.3,54.6L37.3,54.6L37.3,54.6L37.3,54.6L37.3,54.6L37.3,54.6L37.3,54.6L37.3,54.6L37.3,54.6L37.3,54.6
		L37.3,54.6L37.3,54.6L37.3,54.6L37.3,54.6L37.3,54.6 M39.9,53.5C39.9,53.5,39.9,53.4,39.9,53.5L39.9,53.5L39.9,53.5
		c-0.1-0.1-0.2-0.1-0.3-0.1h0l0,0h0l0,0h0c0,0-0.2-0.1-0.2-0.2c0,0,0,0,0,0c0-0.1,0.1-0.2,0.2-0.3v0l0,0h0l0,0l0,0
		c0.4-0.1,0.6-0.3,0.7-0.4v0l0,0l0,0l0,0v0c0,0,0,0,0,0l0,0v0v0c-0.1-0.1-0.3-0.3-0.4-0.5c-0.1-0.1-0.1-0.2-0.1-0.2
		c-0.2-0.2-0.3-0.3-0.6-0.3l0,0h0l0,0h0l0,0h0l0,0h0h0l0,0h0c-0.2,0-0.4,0.3-0.5,0.3v0l0,0l0,0c-0.2,0.1-0.3-0.1-0.3-0.2
		c0,0,0-0.1,0-0.1l0,0v0l0,0c0,0,0,0,0,0l0,0c0,0,0,0,0-0.1l0,0l0,0l0,0l0,0l0,0l0,0l0,0l0,0l0,0l0,0l0,0l0,0l0,0l0,0l0,0l0,0l0,0
		l0,0l0,0l0,0l0,0c0,0,0,0,0,0l0,0c0,0,0,0,0,0l0,0c0,0,0-0.1,0-0.1c0,0,0-0.1,0-0.1v0l0,0v0v0l0,0c0-0.3-0.2-0.6-0.4-0.9l0,0l0,0
		c-0.1-0.2-0.3-0.2-0.3-0.2l0,0l0,0c0,0,0,0,0,0c-0.4,0.2-1.2,2.1-1.2,2.5v0c0,0.1,0,0.1,0,0.1c0,0,0,0.1,0.1,0.1c0,0,0,0,0.1,0l0,0
		c0,0,0,0,0.1,0l0,0l0,0l0,0c0,0,0,0,0,0l0,0c0.1,0.1,0.1,0.2,0.1,0.4c0,0.2-0.1,0.4-0.3,0.5c-0.1,0.1-0.2,0.2-0.2,0.2
		c0,0.1,0,0.2,0.1,0.3l0,0l0,0l0,0l0,0h0l0,0l0,0l0,0l0,0l0,0h0l0,0l0,0l0,0l0,0l0,0h0l0,0l0,0l0,0h0l0,0l0,0l0,0h0l0,0l0,0l0,0h0
		l0,0h0l0,0l0,0l0,0h0l0,0h0l0,0h0l0,0h0l0,0l0,0l0,0h0l0,0h0l0,0h0h0h0l0,0h0l0,0h0l0,0h0l0,0h0l0,0l0,0l0,0h0l0,0h0l0,0h0l0,0h0
		l0,0h0l0,0h0h0l0,0l0,0h0l0,0h0l0,0h0l0,0l0,0l0,0h0l0,0l0,0l0,0h0l0,0c0,0,0,0,0,0l0,0l0,0l0,0h0l0,0l0,0l0,0h0l0,0l0,0l0,0l0,0
		l0,0l0,0l0,0l0,0l0,0l0,0l0,0l0,0l0,0h0l0,0l0,0l0,0h0l0,0l0,0l0,0l0,0l0,0l0,0l0,0l0,0l0,0l0,0l0,0l0,0l0,0l0,0l0,0l0,0l0,0h0l0,0
		l0,0l0,0l0,0l0,0l0,0l0,0l0,0l0,0l0,0c0.3-0.1,0.5-0.4,0.6-0.6c0,0,0,0,0.1-0.1l0,0l0,0h0l0,0l0,0l0,0h0l0,0l0,0l0,0h0l0,0l0,0l0,0
		h0l0,0h0l0,0h0l0,0h0l0,0h0l0,0h0l0,0h0l0,0h0l0,0h0l0,0h0l0,0l0,0l0,0h0l0,0h0l0,0l0,0l0,0h0l0,0l0,0l0,0h0l0,0l0,0
		c0.1,0,0.1,0.1,0.1,0.2c-0.1,0.3-0.6,0.5-0.9,0.8c0,0,0,0-0.1,0l0,0l0,0l0,0l0,0l0,0l0,0l0,0l0,0c0,0,0,0,0,0l0,0l0,0l0,0l0,0l0,0
		c0,0-0.1,0-0.1,0l0,0h0l0,0l0,0l0,0h0l0,0c0,0,0,0-0.1,0l0,0l0,0h0h0l0,0c0,0,0,0,0,0l0,0h0l0,0h0l0,0h0l0,0h0l0,0h0l0,0h0l0,0h0
		l0,0h0l0,0h0l0,0h0l0,0h0l0,0h0l0,0h0l0,0h0l0,0h0l0,0l0,0h0l0,0h0l0,0l0,0l0,0h0l0,0h0l0,0h0l0,0l0,0h0l0,0l0,0h0l0,0h0l0,0l0,0
		l0,0l0,0l0,0h0l0,0l0,0l0,0l0,0 M37.3,54.6L37.3,54.6c-0.1,0.1,0.2,0.3,0.5,0.3l0,0c0.6-0.1,1.1-0.5,1.5-0.8l0.1,0
		c0.2-0.1,0.4-0.2,0.5-0.4c0,0,0-0.1,0-0.1l0,0 M116,66.3v-4.6c-1.5,0.6-5.4,1.6-5.4,3.6c0,1.4,1,2.4,2.4,2.4
		C114.3,67.7,115.1,67.1,116,66.3L116,66.3z M53,48.8h0.4c0.3-0.2,0.7-0.3,1-0.2c0.3,0,0.7,0.4,1.1,0.4c0.1,0,0.4,0,0.4,0v0.1h0.7
		v0.7c0,0,0,0,0.1,0c0.2,0.1,0.4,0.2,0.4,0.6c0,0.4-0.2,0.5-0.3,0.6c0,0,0-0.1,0,0v1.2c0,0,0,0,0,0c0.2,0.1,0.4,0.2,0.4,0.6
		c0,0.3-0.2,0.4-0.3,0.5c-0.1,0-0.1,0.1-0.1,0.1v0.9c-2.2,0-4.3,0-6.5,0v-0.9c0,0,0-0.1-0.1-0.1c-0.2-0.1-0.3-0.2-0.3-0.5
		c0-0.4,0.2-0.5,0.4-0.6l0,0c0,0,0,0.1,0,0V51c0,0,0,0,0,0c-0.1-0.1-0.3-0.2-0.3-0.6c0-0.4,0.2-0.5,0.4-0.6c0,0,0.1,0,0.1,0v-0.7
		h0.6V49c0,0,0.3,0,0.4,0c0.4-0.1,0.8-0.4,1.1-0.4C52.3,48.5,52.6,48.6,53,48.8L53,48.8z M55.8,49.5v3.7h-2.2c0,0.3-0.3,0.3-0.4,0.3
		c-0.1,0-0.4,0-0.4-0.3h-2.2v-3.7h-0.2v0.3c0,0.2-0.1,0.3-0.2,0.3c-0.1,0.1-0.2,0.1-0.2,0.3c0,0.2,0.1,0.2,0.2,0.3
		c0.1,0.1,0.2,0.2,0.2,0.3v1.2c0,0.2-0.1,0.2-0.2,0.3c-0.1,0.1-0.2,0.1-0.2,0.3c0,0.1,0.1,0.1,0.2,0.2c0.1,0.1,0.3,0.2,0.3,0.4v0.5
		h5.7v-0.5c0-0.2,0.1-0.3,0.3-0.4c0.1-0.1,0.2-0.1,0.2-0.2c0-0.1-0.1-0.2-0.2-0.3c-0.1-0.1-0.2-0.1-0.2-0.3V51
		c0-0.2,0.1-0.2,0.2-0.3c0.1-0.1,0.2-0.1,0.2-0.3c0-0.2-0.1-0.2-0.2-0.3C56.1,50.1,56,50,56,49.8v-0.3H55.8z M55.4,52.8
		c0,0-0.9,0-1.1-0.1c-0.2-0.1-0.6-0.3-0.9-0.3v-3.2v-0.2c0.3-0.2,0.7-0.3,1-0.2c0.3,0,0.7,0.4,1.1,0.4L55.4,52.8L55.4,52.8z
		 M50.9,52.8v-3.3v-0.2c0.4-0.1,0.8-0.4,1.1-0.4c0.3,0,0.6,0,1,0.2v0.2v3.2c-0.3,0-0.7,0.2-0.9,0.3C51.8,52.8,50.9,52.8,50.9,52.8
		L50.9,52.8z M32.2,48.8h0.4c0.3-0.2,0.7-0.3,1-0.2c0.3,0,0.7,0.4,1.1,0.4c0.1,0,0.4,0,0.4,0v0.1h0.7v0.7c0,0,0,0,0.1,0
		c0.2,0.1,0.4,0.2,0.4,0.6c0,0.4-0.2,0.5-0.3,0.6c0,0,0-0.1,0,0v1.2c0,0,0,0,0.1,0c0.2,0.1,0.4,0.2,0.4,0.6c0,0.3-0.2,0.4-0.3,0.5
		c-0.1,0-0.1,0.1-0.1,0.1v0.9c-2.2,0-4.3,0-6.5,0v-0.9c0,0,0-0.1-0.1-0.1c-0.2-0.1-0.3-0.2-0.3-0.5c0-0.4,0.2-0.5,0.4-0.6l0,0
		c0,0,0,0.1,0,0V51c0,0,0,0,0,0c-0.1-0.1-0.3-0.2-0.3-0.6c0-0.4,0.2-0.5,0.4-0.6c0,0,0.1,0,0.1,0v-0.7h0.6V49c0,0,0.3,0,0.4,0
		c0.4-0.1,0.8-0.4,1.1-0.4C31.6,48.5,31.9,48.6,32.2,48.8L32.2,48.8z M35,49.5v3.7h-2.2c0,0.3-0.3,0.3-0.4,0.3c-0.1,0-0.4,0-0.4-0.3
		h-2.2v-3.7h-0.2v0.3c0,0.2-0.1,0.3-0.2,0.3c-0.1,0.1-0.2,0.1-0.2,0.3c0,0.2,0.1,0.2,0.2,0.3c0.1,0.1,0.2,0.2,0.2,0.3v1.2
		c0,0.2-0.1,0.2-0.2,0.3c-0.1,0.1-0.2,0.1-0.2,0.3c0,0.1,0.1,0.1,0.2,0.2c0.1,0.1,0.3,0.2,0.3,0.4v0.5h5.7v-0.5
		c0-0.2,0.1-0.3,0.3-0.4c0.1-0.1,0.2-0.1,0.2-0.2c0-0.1-0.1-0.2-0.2-0.3c-0.1-0.1-0.2-0.1-0.2-0.3V51c0-0.2,0.1-0.2,0.2-0.3
		c0.1-0.1,0.2-0.1,0.2-0.3c0-0.2-0.1-0.2-0.2-0.3c-0.1-0.1-0.2-0.2-0.2-0.3v-0.3H35z M30.2,52.8v-3.3v-0.2c0.4-0.1,0.8-0.4,1.1-0.4
		c0.3,0,0.6,0,1,0.2v0.2v3.2c-0.3,0-0.7,0.2-0.9,0.3C31.1,52.8,30.2,52.8,30.2,52.8L30.2,52.8z M34.6,52.8c0,0-0.9,0-1.1-0.1
		c-0.2-0.1-0.6-0.3-0.9-0.3v-3.2v-0.2c0.3-0.2,0.7-0.3,1-0.2c0.3,0,0.7,0.4,1.1,0.4v0.2L34.6,52.8L34.6,52.8L34.6,52.8z M27.5,46.5
		v15.3c0,12.5,13.6,18.8,15.3,18.9c1.7-0.1,15.3-6.4,15.3-18.9V46.5H27.5z M33.1,68.4c0-1.5,1.3-2.8,2.9-2.8c1.6,0,2.9,1.2,2.9,2.8
		c0,1.5-1.3,2.8-2.9,2.8C34.4,71.2,33.1,70,33.1,68.4L33.1,68.4z M34.7,75.1l8.2-8.4l8.2,8.4c-3.5,3.2-7.3,4.9-8.2,4.9
		C42,80,38.2,78.3,34.7,75.1L34.7,75.1z M39.8,62.5c0-1.6,1.4-2.9,3-2.9c1.6,0,3,1.3,3,2.9c0,1.6-1.4,2.8-3,2.8
		C41.1,65.3,39.8,64,39.8,62.5L39.8,62.5z M49.6,71.2c-1.6,0-2.9-1.2-2.9-2.8c0-1.5,1.3-2.8,2.9-2.8c1.6,0,2.9,1.2,2.9,2.8
		C52.5,70,51.2,71.2,49.6,71.2L49.6,71.2z M57.4,61.9c0,2.7-0.7,5.1-1.7,7.2L42.9,56.9L30.1,69.1c-1.1-2.1-1.7-4.5-1.7-7.2v-5h29
		L57.4,61.9L57.4,61.9z M57.4,56.2h-29v-8.9h29V56.2z M44.3,54.7c-0.1,0-0.1-0.1-0.2-0.1c-0.1-0.1-0.5-0.2-0.9-0.4
		c-0.5-0.3-1.2-0.6-1.4-0.7c-1-0.3-1.5-0.1-1.6,0c-0.1,0.4-0.4,0.6-0.7,0.8l-0.1,0c-0.4,0.3-1.1,0.8-1.8,0.8c-0.4,0-0.8-0.1-0.8-0.5
		l-0.3-0.1c-0.4-0.4-0.1-0.9,0-1.1c0.1-0.1,0.2-0.2,0.2-0.3c0-0.2,0-0.2-0.1-0.2c-0.1-0.1-0.3-0.2-0.3-0.5c0-0.5,1-2.9,1.6-3.2
		l0.1,0.2c0.1,0,0.1-0.1,0.2-0.2c0,0,0.2-0.4,0.5-0.5c0.4-0.2,0.8,0,0.9,0.1c0,0,0,0.1,0.1,0c0,0,0.1-0.1,0.1-0.1
		c0.1-0.2,0.3-0.4,0.6-0.4c0.5,0,0.7,0.2,0.8,0.3c0.1,0.1,0.1,0.1,0.2,0.1c0.1,0,0.2-0.1,0.3-0.1c0.2-0.1,0.4-0.2,0.7-0.1
		c0.6,0.2,0.6,0.5,0.7,0.8c0,0.1,0,0.2,0.1,0.2c0.2,0.1,0.3,0.1,0.4,0.1c0.2,0,0.5,0,0.8,0.3c0.2,0.2,0.2,0.5,0.1,0.8
		c0,0.2,0,0.3,0,0.4c0.1,0,0.1,0.1,0.2,0.1c0.2,0,0.4,0.1,0.6,0.4c0.1,0.3,0.1,0.5,0,0.8c0,0.1-0.1,0.4,0,0.4
		c0.2,0.1,0.2,0.3,0.3,0.4c0.3,0.2,0.6,0.3,0.8,0.4c0.4,0.1,0.8,0,1-0.2c0.1-0.1,0.1-0.3,0.2-0.4c0-0.2,0-0.5-0.2-0.7
		c-0.2-0.1-0.7,0-0.9,0.3l-0.2,0.3l-0.1-0.3c-0.2-0.6-0.2-1,0-1.4c0.2-0.4,0.7-0.5,0.9-0.6c0-0.8,0.2-1.3,0.7-1.5
		c0.8-0.5,1.5-0.2,1.5-0.2s-0.8,0.9-0.1,3.2c0.2,0.8,0.1,1.5-0.3,2.1c-0.6,0.9-1.7,1-1.7,1c-0.3,0-0.5,0.1-0.8,0.1
		C45.4,55.3,44.6,54.9,44.3,54.7l0.8-2.2L44.3,54.7z M38.6,51.3C38.6,51.3,38.6,51.3,38.6,51.3C38.6,51.3,38.6,51.3,38.6,51.3
		L38.6,51.3z M37.5,54.2C37.5,54.2,37.5,54.2,37.5,54.2C37.5,54.2,37.5,54.2,37.5,54.2L37.5,54.2z M37.9,54.1
		c0.3-0.1,0.5-0.4,0.6-0.6c0,0,0,0,0.1-0.1c0,0,0,0-0.1,0.1C38.5,53.7,38.2,53.9,37.9,54.1L37.9,54.1z M45.1,52.6
		c-0.4-0.5-0.8-1.1-1-1.4C44,51.2,44,51.1,44,51.1l0-0.1c-0.3-0.3-1-1.4-3-1.5c-0.2,0-1.7,0-2.3,0.5c0,0,0-0.1-0.1-0.1l-0.1-0.3
		c0.1-0.1,0.1-0.2,0.2-0.3c0.1-0.1,0.1-0.3,0.3-0.3c0.2-0.1,0.4,0,0.6,0.1c0.1,0,0.1,0.1,0.2,0.1c0.2,0.1,0.3-0.1,0.5-0.3
		c0.1-0.1,0.2-0.3,0.3-0.3c0.3,0,0.4,0.1,0.5,0.2c0.1,0.1,0.2,0.3,0.5,0.3c0.2,0,0.3-0.1,0.4-0.1c0.1-0.1,0.2-0.1,0.4-0.1
		c0.4,0.1,0.4,0.3,0.4,0.5c0,0.1,0.1,0.3,0.3,0.4c0.2,0.1,0.5,0.1,0.6,0.1c0.2,0,0.3,0,0.5,0.2c0.1,0.1,0.1,0.3,0.1,0.5
		c0,0.2-0.1,0.5,0.1,0.7c0.1,0.1,0.3,0.2,0.4,0.2c0.1,0,0.2,0.1,0.3,0.3c0.1,0.1,0,0.3,0,0.4C45.1,52.4,45.1,52.5,45.1,52.6
		L45.1,52.6z M37.8,54.8c0.6-0.1,1.1-0.5,1.5-0.8l0.1,0c0.2-0.1,0.4-0.2,0.5-0.4c0,0,0-0.1,0-0.1c0,0.1,0,0.1,0,0.1
		c-0.1,0.2-0.3,0.3-0.5,0.4l-0.1,0C38.9,54.4,38.4,54.7,37.8,54.8L37.8,54.8L37.8,54.8z M38,49.9C38,49.9,38,49.9,38,49.9
		C38,49.9,38,49.9,38,49.9L38,49.9z M38,49.9L38,49.9L38,49.9L38,49.9L38,49.9z M39.8,53.4L39.8,53.4c-0.1,0-0.1-0.1-0.3-0.1
		C39.7,53.4,39.8,53.4,39.8,53.4L39.8,53.4z M39.6,53.4L39.6,53.4c-0.1,0-0.2-0.1-0.2-0.2c0,0,0,0,0,0c0,0,0,0,0,0
		C39.4,53.3,39.5,53.3,39.6,53.4L39.6,53.4z M39.6,52.9L39.6,52.9c0.4-0.2,0.6-0.3,0.7-0.4l0,0C40.2,52.5,40,52.7,39.6,52.9
		L39.6,52.9z M40.3,52.5L40.3,52.5C40.4,52.5,40.4,52.4,40.3,52.5L40.3,52.5L40.3,52.5L40.3,52.5L40.3,52.5
		C40.4,52.4,40.4,52.5,40.3,52.5L40.3,52.5z M40.4,52.4L40.4,52.4c-0.2-0.2-0.3-0.3-0.4-0.5c-0.1-0.1-0.1-0.1-0.1-0.2
		c-0.2-0.2-0.3-0.3-0.6-0.3c0.3,0,0.4,0.1,0.6,0.3c0,0,0.1,0.1,0.1,0.2C40.1,52.1,40.2,52.3,40.4,52.4L40.4,52.4z M39.2,51.5
		c-0.2,0-0.3,0.3-0.5,0.3C38.9,51.8,39.1,51.6,39.2,51.5L39.2,51.5z M38.7,51.9c-0.2,0.1-0.3-0.1-0.3-0.2
		C38.4,51.8,38.5,51.9,38.7,51.9L38.7,51.9z M38.4,51.5L38.4,51.5L38.4,51.5L38.4,51.5L38.4,51.5z M38.4,51.5
		C38.4,51.5,38.4,51.5,38.4,51.5C38.4,51.5,38.4,51.5,38.4,51.5L38.4,51.5z M38.4,51.5C38.4,51.5,38.5,51.4,38.4,51.5
		C38.5,51.4,38.4,51.5,38.4,51.5L38.4,51.5z M38.5,51.4C38.5,51.4,38.5,51.4,38.5,51.4L38.5,51.4z M38.6,51.3
		C38.6,51.3,38.6,51.3,38.6,51.3C38.6,51.3,38.6,51.3,38.6,51.3L38.6,51.3z M38.6,51.3c0,0,0-0.1,0-0.1c0,0,0-0.1,0-0.1
		c0,0,0,0.1,0,0.1C38.7,51.2,38.6,51.2,38.6,51.3L38.6,51.3z M38.3,50.1L38.3,50.1L38.3,50.1L38.3,50.1L38.3,50.1z M36.8,52.5
		c0,0.1,0,0.1,0,0.1C36.8,52.5,36.8,52.5,36.8,52.5L36.8,52.5z M40.1,51.6c0.1-0.1,0.2-0.2,0.4-0.2c0.1,0,0.2,0,0.3,0.1
		c0.1,0.1,0.2,0.2,0.3,0.4l0.1,0.3l0.2-0.2c0.1-0.1,0.3-0.2,0.5-0.1c0.1,0,0.2,0.2,0.3,0.4l0.1,0.3l0.2-0.2c0.1-0.1,0.3-0.2,0.3-0.1
		c0.1,0,0.2,0.2,0.2,0.3c0,0.1,0.1,0.1,0.1,0.2c0.1,0.2,0.3,0.2,0.4,0.2c0.1,0,0.2,0,0.2,0.2c0,0.1,0.4,0.2,0.4-0.1
		c-0.1-0.5-0.4-0.5-0.6-0.5c-0.1,0-0.1,0-0.1,0c0,0,0-0.1-0.1-0.1c-0.1-0.2-0.2-0.5-0.5-0.5c-0.1,0-0.3,0-0.4,0.1
		c-0.1-0.2-0.3-0.4-0.4-0.5c-0.2-0.1-0.5,0-0.6,0.1c-0.1-0.2-0.2-0.3-0.4-0.4C40.8,51,40.6,51,40.4,51c-0.2,0.1-0.4,0.2-0.5,0.3
		c-0.1-0.1-0.9-0.1-0.9-0.1c0-0.3-0.1-0.5-0.2-0.8c0-0.3,1.5-0.5,2.1-0.5c1.8,0.1,2.5,1,2.8,1.3l0,0.1c0,0,0,0.1,0.1,0.1
		c0.2,0.3,0.7,1,1.2,1.6c0.1,0.2,0.4,0.5,0.6,0.6c0.3,0.3,0.7,0.4,1,0.4c0.6,0.1,1,0,1.4-0.3c0.2-0.2,0.2-0.4,0.3-0.7
		c0-0.4,0-1-0.6-1c-0.4,0-0.8,0.1-1,0.3c-0.1-0.3-0.1-0.7,0-0.9c0.2-0.4,0.7-0.4,0.8-0.4l0.2,0v-0.2c0-0.6,0.1-1.1,0.4-1.4
		c0.2-0.2,0.5-0.3,0.8-0.3c-0.1,0.5-0.4,1.4,0.1,3c0.2,0.7,0.1,1.3-0.2,1.7c-0.5,0.8-1.5,0.9-1.5,0.9h0h0h0
		c-1.3,0.2-2.2-0.2-2.7-0.5c-0.1,0-0.1-0.1-0.2-0.1c-0.1-0.1-0.5-0.2-0.8-0.4c-0.8-0.4-1.2-0.7-1.5-0.7c-1-0.3-1.6-0.1-1.9,0L40,53
		c0.6-0.2,0.7-0.4,0.7-0.6c0-0.1,0-0.2-0.1-0.3c-0.1-0.1-0.3-0.3-0.4-0.4C40.2,51.7,40.1,51.6,40.1,51.6L40.1,51.6z M169.1,77.4
		l-0.3,0.8c-0.1,0.2,0,0.4,0.3,0.4v0.2H168v-0.2c0.2,0,0.3-0.1,0.4-0.3c0.3-0.5,1-2.6,1.5-3.9h0.3c0.4,1.2,1,3.1,1.2,3.6
		c0.1,0.3,0.2,0.5,0.5,0.5v0.2h-1.4v-0.2c0.4,0,0.4-0.2,0.3-0.5l-0.3-0.8L169.1,77.4L169.1,77.4z M170.5,77.2l-0.6-2l0,0l-0.8,2
		H170.5L170.5,77.2z M166.5,78.1c0,0.6,0,0.5,0.5,0.6v0.2h-1.6v-0.2c0.5-0.1,0.5,0,0.5-0.6v-2.8c0-0.6,0-0.5-0.5-0.6v-0.2h1.6v0.2
		c-0.5,0.1-0.5,0-0.5,0.6V78.1L166.5,78.1z M163.6,78.9c-1-1.1-2-2.3-3-3.5v2.7c0,0.1,0,0.2,0,0.3c0,0.2,0.2,0.3,0.6,0.3v0.2h-1.5
		v-0.2c0.3,0,0.5-0.1,0.5-0.3c0-0.1,0-0.2,0-0.3v-2.9c-0.2-0.2-0.4-0.4-0.7-0.4v-0.2h1.1c0.9,1.1,1.8,2.2,2.8,3.4l0,0v-2.5
		c0-0.1,0-0.2,0-0.3c0-0.2-0.2-0.3-0.6-0.3v-0.2h1.5v0.2c-0.3,0-0.5,0.1-0.5,0.3c0,0.1,0,0.2,0,0.3v3.5L163.6,78.9L163.6,78.9
		L163.6,78.9z M156.1,77.4l-0.3,0.8c-0.1,0.2,0,0.4,0.3,0.4v0.2H155v-0.2c0.2,0,0.3-0.1,0.4-0.3c0.3-0.5,1-2.6,1.5-3.9h0.3
		c0.4,1.2,1,3.1,1.2,3.6c0.1,0.3,0.2,0.5,0.5,0.5v0.2h-1.4v-0.2c0.4,0,0.4-0.2,0.3-0.5l-0.3-0.8L156.1,77.4L156.1,77.4z M157.5,77.2
		l-0.6-2l0,0l-0.7,2H157.5L157.5,77.2z M152.3,74.7c-0.3,0-0.6,0.1-0.4,0.7c0.2,0.8,0.6,1.8,0.9,2.7c0.4-0.9,0.8-1.9,1.1-2.8
		c0.2-0.4,0-0.6-0.4-0.6v-0.2h1.3v0.2c-0.2,0-0.4,0.1-0.5,0.4c-0.5,1.2-1,2.5-1.5,3.8h-0.3c-0.4-1.1-0.8-2.2-1.2-3.3
		c-0.2-0.7-0.4-0.8-0.7-0.8v-0.2h1.7L152.3,74.7L152.3,74.7z M147.4,78.7c0.5-0.1,0.5,0,0.5-0.6v-2.8c0-0.6,0-0.5-0.5-0.6v-0.2h1.6
		v0.2c-0.5,0.1-0.5,0-0.5,0.6v2.8c0,0.4,0.2,0.5,0.8,0.5c0.9,0,0.8-0.3,1.1-0.9h0.2l-0.2,1.1h-3V78.7L147.4,78.7z M143.6,78.7
		c0.5-0.1,0.5,0,0.5-0.6v-0.9l-0.9-1.9c-0.2-0.4-0.4-0.5-0.6-0.5v-0.2h1.6v0.2c-0.5,0-0.4,0.2-0.3,0.5l0.8,1.5l0.8-1.5
		c0.2-0.4,0-0.5-0.3-0.5v-0.2h1.3v0.2c-0.2,0-0.3,0.1-0.5,0.4l-1,1.8c-0.1,0.1-0.1,0.3-0.1,0.4V78c0,0.6,0,0.5,0.5,0.6v0.2h-1.6
		L143.6,78.7L143.6,78.7z M141.1,75.5c0-0.4-0.3-0.8-0.8-0.8c-0.4,0-0.7,0.2-0.7,0.6c0,0.4,0.4,0.7,1,1.1c0.6,0.5,0.9,0.8,0.9,1.3
		c0,0.8-0.8,1.1-1.5,1.1c-0.4,0-0.8-0.1-1-0.2c0,0,0,0,0-0.1v-0.9h0.2c0.1,0.7,0.5,0.9,1,0.9c0.4,0,0.8-0.3,0.8-0.8
		c0-0.4-0.2-0.8-1.1-1.4c-0.3-0.2-0.8-0.5-0.8-1.1c0-0.5,0.6-1,1.3-1c0.3,0,0.6,0,0.9,0.1c0,0,0,0,0,0.1v0.8L141.1,75.5L141.1,75.5z
		 M137.1,78.9c-1-1.1-2-2.3-3-3.5v2.7c0,0.1,0,0.2,0,0.3c0,0.2,0.2,0.3,0.6,0.3v0.2h-1.5v-0.2c0.3,0,0.5-0.1,0.5-0.3
		c0-0.1,0-0.2,0-0.3v-2.9c-0.2-0.2-0.4-0.4-0.7-0.4v-0.2h1.1c0.9,1.1,1.9,2.2,2.8,3.4l0,0v-2.5c0-0.1,0-0.2,0-0.3
		c0-0.2-0.2-0.3-0.6-0.3v-0.2h1.5v0.2c-0.3,0-0.5,0.1-0.5,0.3c0,0.1,0,0.2,0,0.3v3.5L137.1,78.9L137.1,78.9L137.1,78.9z M131.5,78.9
		c-1-1.1-2-2.3-3-3.5v2.7c0,0.1,0,0.2,0,0.3c0,0.2,0.2,0.3,0.6,0.3v0.2h-1.5v-0.2c0.3,0,0.5-0.1,0.5-0.3c0-0.1,0-0.2,0-0.3v-2.9
		c-0.2-0.2-0.4-0.4-0.7-0.4v-0.2h1.1c0.9,1.1,1.9,2.2,2.8,3.4l0,0v-2.5c0-0.1,0-0.2,0-0.3c0-0.2-0.2-0.3-0.6-0.3v-0.2h1.5v0.2
		c-0.3,0-0.5,0.1-0.5,0.3c0,0.1,0,0.2,0,0.3v3.5L131.5,78.9L131.5,78.9L131.5,78.9z M123.6,78.7c0.5-0.1,0.5,0,0.5-0.6v-2.8
		c0-0.6,0-0.5-0.5-0.6v-0.2h2.8v1h-0.2c-0.1-0.5-0.2-0.8-0.6-0.8h-0.8v1.7h0.5c0.4,0,0.5-0.2,0.6-0.5h0.2v1.3h-0.2
		c0-0.4-0.2-0.6-0.6-0.6h-0.5V78c0,0.5,0.2,0.6,0.8,0.6c0.9,0,0.8-0.3,1.1-0.9h0.2l-0.2,1.1h-3V78.7L123.6,78.7z M119.9,77.8
		c0,0.8,0,0.7,0.7,0.8v0.2h-2.1v-0.2c0.7-0.1,0.7,0,0.7-0.8v-3.6c0-0.8,0-0.7-0.7-0.8v-0.2h2.1c1.3,0,2,0.5,2,1.5
		c0,1.1-1,1.8-2.3,1.7v-0.1c1,0,1.4-0.6,1.4-1.4c0-0.9-0.4-1.3-1.3-1.3h-0.5V77.8L119.9,77.8z M115.1,75l-0.2,0.2h-1
		c-0.4,1.9-1,4.4-1.5,5.6H112l1.1-5.6h-0.8l0.1-0.3h0.8c0.4-1.7,1.8-1.9,2.1-1.9c0.2,0,0.6,0,0.7,0.1l-0.1,0.5l-0.2,0.1
		c-0.1-0.2-0.4-0.5-0.7-0.5c-0.5,0-0.8,0.3-1,1.2l-0.1,0.4h1.2L115.1,75L115.1,75z M107.9,77.4c0-1,0.9-2.6,2.2-2.6
		c1,0,1.3,0.7,1.3,1.4c0,0.9-0.7,2.7-2.2,2.7C108.1,78.9,107.9,78.1,107.9,77.4L107.9,77.4z M110.6,75.8c0-0.8-0.5-0.9-0.6-0.9
		c-0.9,0-1.4,1.6-1.4,2.6c0,0.4,0.1,1.2,0.7,1.2C110.2,78.7,110.6,77.2,110.6,75.8L110.6,75.8z M102,78.7c0.6-0.1,0.5,0,0.5-0.6
		v-0.9l-0.9-1.9c-0.2-0.4-0.4-0.5-0.7-0.5v-0.2h1.6v0.2c-0.5,0-0.4,0.2-0.3,0.5l0.8,1.5l0.8-1.5c0.2-0.4,0-0.5-0.3-0.5v-0.2h1.3v0.2
		c-0.2,0-0.3,0.1-0.5,0.4l-1,1.8c-0.1,0.1-0.1,0.3-0.1,0.4V78c0,0.6,0,0.5,0.5,0.6v0.2H102L102,78.7L102,78.7z M98.7,78.1
		c0,0.6,0,0.5,0.5,0.6v0.2h-1.6v-0.2c0.5-0.1,0.5,0,0.5-0.6v-3.3h-0.5c-0.5,0-0.7,0.3-0.9,0.8h-0.2l0.2-0.9h3.4l0.2,0.9h-0.2
		c-0.2-0.4-0.3-0.8-0.9-0.8h-0.5V78.1L98.7,78.1z M95,78.1c0,0.6,0,0.5,0.5,0.6v0.2h-1.6v-0.2c0.5-0.1,0.5,0,0.5-0.6v-2.8
		c0-0.6,0-0.5-0.5-0.6v-0.2h1.6v0.2c-0.5,0.1-0.5,0-0.5,0.6V78.1L95,78.1z M92.2,75.5c0-0.4-0.3-0.8-0.8-0.8c-0.4,0-0.7,0.2-0.7,0.6
		c0,0.4,0.4,0.7,1,1.1c0.6,0.5,0.9,0.8,0.9,1.3c0,0.8-0.8,1.1-1.5,1.1c-0.4,0-0.8-0.1-1-0.2c0,0,0,0,0-0.1v-0.9h0.2
		c0.1,0.7,0.5,0.9,1,0.9c0.4,0,0.8-0.3,0.8-0.8c0-0.4-0.2-0.8-1.1-1.4c-0.3-0.2-0.8-0.5-0.8-1.1c0-0.5,0.6-1,1.3-1
		c0.3,0,0.6,0,0.9,0.1c0,0,0,0,0,0.1v0.8L92.2,75.5L92.2,75.5L92.2,75.5z M85.4,74.5h1.8c0.6,0,1.2,0.3,1.2,1c0,0.6-0.4,1.1-0.9,1.2
		l0.6,0.9c0.3,0.4,0.6,0.9,0.9,1v0.1h-0.6c-0.4,0-0.6-0.7-1.3-1.9h-0.6v1.1c0,0.6,0,0.5,0.5,0.6v0.2h-1.6v-0.2
		c0.5-0.1,0.5,0,0.5-0.6v-2.8c0-0.6,0-0.5-0.5-0.6V74.5L85.4,74.5z M86.6,76.7h0.5c0.5,0,0.8-0.4,0.8-1.1c0-0.7-0.4-0.9-0.8-0.9
		h-0.5L86.6,76.7L86.6,76.7z M81.2,78.7c0.5-0.1,0.5,0,0.5-0.6v-2.8c0-0.6,0-0.5-0.5-0.6v-0.2h2.8v1h-0.2c-0.1-0.5-0.2-0.8-0.6-0.8
		h-0.8v1.7h0.5c0.4,0,0.5-0.2,0.6-0.5h0.2v1.3h-0.2c0-0.4-0.2-0.6-0.6-0.6h-0.5V78c0,0.5,0.2,0.6,0.8,0.6c0.9,0,0.8-0.3,1.1-0.9h0.2
		l-0.2,1.1h-3L81.2,78.7L81.2,78.7z M77.7,74.7c-0.3,0-0.6,0.1-0.4,0.7c0.2,0.8,0.6,1.8,0.9,2.7c0.4-0.9,0.8-1.9,1.1-2.8
		c0.2-0.4,0-0.6-0.4-0.6v-0.2h1.3v0.2c-0.2,0-0.4,0.1-0.5,0.4c-0.5,1.2-1,2.5-1.5,3.8h-0.3c-0.4-1.1-0.8-2.2-1.2-3.3
		c-0.2-0.7-0.4-0.8-0.7-0.8v-0.2h1.7L77.7,74.7L77.7,74.7z M74.5,78.1c0,0.6,0,0.5,0.5,0.6v0.2h-1.6v-0.2c0.5-0.1,0.5,0,0.5-0.6
		v-2.8c0-0.6,0-0.5-0.5-0.6v-0.2H75v0.2c-0.5,0.1-0.5,0-0.5,0.6V78.1L74.5,78.1z M71.5,78.9c-1-1.1-2-2.3-3-3.5v2.7
		c0,0.1,0,0.2,0,0.3c0,0.2,0.2,0.3,0.6,0.3v0.2h-1.5v-0.2c0.3,0,0.5-0.1,0.5-0.3c0-0.1,0-0.2,0-0.3v-2.9c-0.2-0.2-0.4-0.4-0.7-0.4
		v-0.2h1.1c0.9,1.1,1.8,2.2,2.8,3.4l0,0v-2.5c0-0.1,0-0.2,0-0.3c0-0.2-0.2-0.3-0.6-0.3v-0.2h1.5v0.2c-0.3,0-0.5,0.1-0.5,0.3
		c0,0.1,0,0.2,0,0.3v3.5L71.5,78.9L71.5,78.9L71.5,78.9z M62.6,76.6c0,1.1,0.3,2,1.5,2c1.1,0,1.6-0.8,1.6-2v-2.2c0-0.2,0-0.3,0-0.4
		c0-0.3-0.3-0.4-0.7-0.4v-0.2h1.9v0.2c-0.4,0-0.6,0.1-0.7,0.4c0,0.1,0,0.3,0,0.4v2.2c0,1.7-1.1,2.3-2.1,2.3c-1.7,0-2.2-0.9-2.2-2.3
		v-2.4c0-0.8,0-0.7-0.7-0.8v-0.2h2.1v0.2c-0.7,0.1-0.7,0-0.7,0.8L62.6,76.6L62.6,76.6z M142.1,55.5l0.5-1.8h-5.8v-2.9h-0.3
		c-1.4,1.6-2.6,2.9-4.2,4.3v0.4h1.8v9.8c0,2.3,1,4.3,3.6,4.3c2.2,0,3.8-1.6,4.7-2.6l-0.4-0.5c-0.8,0.9-1.8,1.4-2.8,1.4
		c-1.9,0-2.4-1-2.4-2.8v-9.4L142.1,55.5L142.1,55.5z M128.2,69.1v-0.6c-1.7-0.1-2.1-0.1-2.1-1.8v-8.6c0-0.5,0.9-1.4,1.8-1.4
		c0.9,0,1,1,2.1,1c1.4,0,1.6-0.7,1.6-1.7c0-1-1.1-1.6-2.3-1.6c-1.4,0-2.6,1.2-3.3,2.3v-2.2c-1.5,0.7-3.2,1.4-4.6,1.6v0.5
		c1.5,0.2,2.1,0.5,2.1,1.8v8.2c0,1.7-0.4,1.7-1.9,1.8v0.6L128.2,69.1L128.2,69.1L128.2,69.1z M163,69.1v-0.6
		c-1.5-0.1-1.9-0.1-1.9-1.8V59c0-1.5,2-2.9,3.4-2.9c2.1,0,3.3,1.4,3.3,3.4v7.1c0,1.7-0.4,1.7-2,1.8v0.6h6.6v-0.6
		c-1.1-0.1-2.1-0.1-2.1-1.8V59c0-2.4-2.4-4.3-4.9-4.3c-2.1,0-3.2,1-4.5,2.3v-2.3c-1.5,0.5-2.9,1.3-4.5,1.5v0.5
		c1.4,0.1,1.9,0.6,1.9,1.8v8.2c0,1.7-0.4,1.7-2,1.8v0.6L163,69.1L163,69.1L163,69.1z M61.2,47.3v-0.8h7.6v0.8c-1.4,0-2,0-2,0.9
		c0,0,0,0.3,0.2,0.6l4.6,15.5L78,45.8h0.5l5.6,18.2c0,0,4.4-13.3,4.4-15.2c0-1.5-0.9-1.4-2.1-1.5v-0.7H91c2.1,0,4.1-0.7,5.3-1.4V57
		c1.4-1.3,2.7-2.3,4.7-2.3c1.6,0,2.9,0.7,3.7,2c0.7,1.1,0.8,2.2,0.8,3.5v6.5c0,1.7,0.4,1.7,1.9,1.8v0.6h-6.4v-0.6
		c1.4-0.1,1.8-0.1,1.8-1.8v-6.6c0-1,0-1.5-0.5-2.5c-0.5-0.9-1.5-1.8-2.7-1.6c-1.8,0.3-2.6,1.1-3.5,2.1v8.6c0,1.7,0.4,1.7,1.8,1.8
		v0.6h-6.4v-0.6c1.5-0.1,2-0.1,2-1.8V47.5c0,0-0.5,0-1.2,0c-2.6,0.2-2.6,2.1-3.4,4.4l-5.8,17.5h-0.6l-5.7-17.5l-6.5,17.5H70l-6-19.2
		c-0.4-1-0.5-1.8-1.1-2.4C62.5,47.5,62.5,47.3,61.2,47.3L61.2,47.3z M145,62.1c0,2.5,0.9,6.6,4.2,6.6c3.2,0,4.3-3.3,4.3-5.8
		c0-2.8-0.4-7.5-4.2-7.5C146,55.4,145,59.6,145,62.1L145,62.1z M142.2,62c0-3.9,2.8-7.3,7-7.3c4.4,0,7.2,3.3,7.2,7.4
		c0,4.2-2.7,7.3-7.1,7.3C144.7,69.4,142.2,66.1,142.2,62L142.2,62z M116.1,60.9v-3.6c0-1.3-0.8-1.6-2.1-1.6c-1.2,0-2.9,0.8-2.9,1.5
		c0,0.2,0.1,0.4,0.1,0.8c0,1.2-0.3,2.1-1.7,2.1c-0.6,0-1-0.6-1-1.1c0-0.7,0.5-1.4,1.2-2c1.5-1.2,3.9-2.3,5.9-2.3
		c2.1,0,3.1,1.2,3.1,3.2v8.7c0,0.5,0,1.6,0.8,1.6c0.5,0,0.8-0.7,0.9-1.1h0.5c-0.2,1.6-0.8,2.5-2.4,2.5c-1.2,0-2.3-1.1-2.3-2.3
		c-1.6,1.1-2.6,2.3-4.7,2.3c-1.5,0-2.9-1.2-2.9-2.8C108.4,63.1,113.4,62,116.1,60.9L116.1,60.9z"/>
</g>
</svg>
